<svg version="1.1" id="Layer_1" xmlns="http://www.w3.org/2000/svg" xmlns:xlink="http://www.w3.org/1999/xlink" x="0px" y="0px"
	 width="100%" viewBox="0 0 1024 544" enable-background="new 0 0 1024 544" xml:space="preserve">
<path fill="#000000" opacity="1.000000" stroke="none" 
	d="
M765.675171,306.494843 
	C759.973145,359.559265 739.559326,405.754669 705.035461,445.722198 
	C675.430847,479.994873 639.174744,504.763336 596.511169,519.860657 
	C573.657959,527.947815 550.017151,532.270508 525.697693,533.530029 
	C487.407043,535.513367 450.609558,529.209167 415.563477,514.086853 
	C352.900574,487.048035 307.182037,442.434052 279.545319,379.791229 
	C263.960693,344.466278 256.941711,307.364136 258.959229,268.844391 
	C262.109802,208.691727 283.325317,155.598755 323.652863,110.649246 
	C361.198425,68.800537 407.656067,41.761799 462.765717,30.409922 
	C491.987701,24.390568 521.600342,23.663425 551.176697,28.352064 
	C614.940308,38.460293 667.347107,68.843674 708.664917,118.105103 
	C739.114868,154.409103 757.608276,196.325958 764.405701,243.329590 
	C767.423157,264.194611 768.262329,285.077454 765.675171,306.494843 
M718.954529,287.428497 
	C719.084351,283.906403 722.497253,281.747498 723.327454,278.009735 
	C720.035522,279.573303 719.152222,282.983521 716.351379,284.155518 
	C714.270996,282.712036 714.833252,280.728119 714.863770,278.991425 
	C714.995361,271.481262 714.463013,263.978729 713.369751,256.598358 
	C709.215027,228.549637 700.997986,201.897629 686.698547,177.129044 
	C671.863220,151.432175 652.235413,130.251343 627.975708,113.567368 
	C601.833801,95.588959 572.934692,84.245422 541.221313,80.277130 
	C512.422852,76.673592 483.947601,78.243477 456.132996,86.170959 
	C422.999908,95.614273 394.702179,113.726402 370.105865,137.673386 
	C355.534027,151.860565 343.957153,168.495911 334.868622,186.448532 
	C325.726868,204.506287 319.596954,223.810638 315.674957,243.917664 
	C308.908966,278.605042 311.304535,312.363586 322.493103,345.719788 
	C329.328003,366.096466 339.233582,384.826477 352.204224,401.917633 
	C363.321747,416.567017 376.242889,429.313171 391.157410,440.252838 
	C401.120514,447.560669 412.148315,452.921051 422.613770,459.244598 
	C429.707764,463.530975 433.302490,464.441223 435.971497,453.635468 
	C436.780731,450.359253 438.380737,449.662292 441.415253,450.965698 
	C445.874939,452.881226 449.923523,456.335724 451.795013,459.962097 
	C455.533539,467.205902 461.298462,470.765839 468.180023,473.724213 
	C470.162476,474.576477 471.942383,476.129517 474.187683,475.698425 
	C477.991058,474.968170 481.028778,476.425781 483.950195,478.507355 
	C485.445465,479.572723 486.913574,480.765411 488.863892,480.754425 
	C499.348694,480.695374 509.773895,482.239471 520.295959,481.659119 
	C525.734558,481.359131 531.461548,480.498657 536.281494,484.531738 
	C537.408936,485.475220 539.057007,485.796478 540.954956,486.615082 
	C539.595459,483.993408 536.783936,484.028015 535.860962,481.813080 
	C537.141602,480.105164 539.083130,480.199188 540.804382,479.912628 
	C555.110352,477.530853 569.119141,474.216339 582.835083,469.278412 
	C604.854553,461.351135 624.892212,450.015350 642.619324,434.963959 
	C669.106689,412.474609 688.625793,384.790375 701.323730,352.365967 
	C702.211548,350.098938 702.638306,347.469147 705.500610,346.212677 
	C709.350464,343.691833 712.731995,340.659058 715.671875,337.139191 
	C711.344360,339.228760 707.611145,342.000183 704.987122,345.214813 
	C705.139282,341.704315 705.771362,338.270630 707.058655,335.012177 
	C707.769958,333.211548 707.477112,330.320740 709.530762,329.838715 
	C715.079163,328.536407 715.935364,322.902313 719.434753,319.729401 
	C718.140320,320.607605 716.845947,321.485809 715.328918,322.514984 
	C715.690186,317.712830 720.533630,315.588379 721.020935,311.254791 
	C719.651245,310.833069 718.981628,312.809052 717.284424,311.567749 
	C717.638306,308.290558 721.230530,306.298218 722.027710,302.527161 
	C718.815247,304.202423 717.531006,307.578094 713.850403,308.543213 
	C713.496277,301.390778 714.008118,294.783875 714.995361,287.976898 
	C716.238220,288.373047 717.153503,288.664795 717.937012,289.578033 
	C717.879700,290.845428 716.284180,291.765656 717.189941,293.494781 
	C720.842712,292.060211 721.508423,288.354065 723.301453,285.485504 
	C721.830811,286.385681 720.360229,287.285858 718.954529,287.428497 
M605.927673,500.527893 
	C532.936768,530.459473 461.900116,524.541565 392.440826,488.593536 
	C431.928894,512.010315 474.560120,522.766174 520.204224,521.640076 
	C565.995361,520.510315 607.546265,505.338776 647.117004,482.642426 
	C646.601807,485.204132 645.060852,487.431580 647.557251,489.545990 
	C648.541687,489.010895 649.584167,488.526489 650.542603,487.911133 
	C671.027405,474.758362 688.880615,458.651123 704.626770,440.109467 
	C718.971802,423.217743 730.307861,404.471069 739.636108,384.451111 
	C740.951355,381.628418 743.348145,378.369659 738.021301,376.816620 
	C739.264954,374.724152 739.141357,372.344452 741.105774,370.420898 
	C742.840454,371.419403 744.776062,371.938110 745.674805,369.169586 
	C746.729858,365.919708 749.975891,362.554749 744.904541,360.012054 
	C747.859741,352.869232 750.351807,345.893829 753.600586,339.290741 
	C756.264893,333.875732 755.859558,327.884888 757.747681,322.451752 
	C760.069763,315.769470 761.294373,308.984985 761.794250,301.982452 
	C762.839600,287.335663 761.367188,272.698425 761.731323,258.054749 
	C761.860352,252.867416 760.686707,247.817673 759.828796,242.729446 
	C759.033264,238.011673 755.978943,236.174957 751.164795,235.104126 
	C751.888367,240.952286 752.532898,246.347839 753.226807,251.737061 
	C755.960999,272.974670 752.495483,293.978241 749.867065,314.856110 
	C746.152405,344.361816 736.414978,372.168762 721.396667,397.945404 
	C694.274048,444.497070 655.807922,478.395172 605.927673,500.527893 
M738.250122,190.355972 
	C740.292786,195.901596 742.335449,201.447220 744.519348,207.376404 
	C749.754456,204.162704 749.365173,200.151520 747.917358,195.784973 
	C740.302856,172.820084 728.773071,151.954956 714.589661,132.412369 
	C691.245239,100.247284 662.141357,75.128975 625.776611,58.707481 
	C624.510010,58.135513 623.227295,57.680977 621.984985,60.862244 
	C646.663574,76.280350 670.920898,92.853645 690.867554,114.806114 
	C711.011414,136.975571 726.858582,161.803802 738.250122,190.355972 
M367.515717,77.032494 
	C360.766846,82.466736 351.834351,85.936089 348.927246,96.896065 
	C354.582733,95.505531 357.782745,92.972572 361.054047,90.502151 
	C375.250763,79.780952 388.100616,67.162567 404.865967,60.030399 
	C407.114319,59.073925 410.330872,57.760693 410.840698,53.876183 
	C395.623566,59.627022 381.732697,67.867706 367.515717,77.032494 
M648.676453,438.915985 
	C649.267151,438.774689 649.857849,438.633392 650.459717,438.489441 
	C650.099365,436.803284 647.610718,437.803101 647.780334,435.744751 
	C649.305115,432.850189 653.148010,434.743256 655.482361,432.607697 
	C647.607544,430.124847 645.678894,438.000275 640.703918,440.278534 
	C643.142090,439.846985 645.580322,439.415436 648.676453,438.915985 
M682.682434,428.937469 
	C684.827942,429.023315 686.653320,428.499390 687.263428,426.152985 
	C687.560364,425.010803 686.754944,424.294250 685.813232,423.874908 
	C683.851501,423.001373 682.217163,423.795197 681.009094,425.270538 
	C679.826843,426.714264 680.242065,428.008881 682.682434,428.937469 
M719.188904,374.597015 
	C721.010925,373.991852 722.751099,373.088684 722.163391,370.847748 
	C721.791016,369.427490 720.168579,369.290070 718.817932,369.394623 
	C717.040039,369.532379 715.428101,370.383453 715.183777,372.152222 
	C714.863464,374.470795 716.831482,374.558746 719.188904,374.597015 
M690.744324,413.594391 
	C691.222229,416.842621 693.220825,417.137939 695.682251,415.922180 
	C697.010620,415.266083 698.413452,413.894043 697.296387,412.407867 
	C695.738525,410.335175 693.590759,410.927246 691.680542,412.266754 
	C691.422485,412.447693 691.250610,412.751617 690.744324,413.594391 
M731.304626,327.555145 
	C733.570923,329.498383 735.577515,329.094055 737.114319,326.696075 
	C738.021118,325.281067 737.327026,323.889557 735.856384,323.581909 
	C733.216614,323.029816 730.782837,323.300140 731.304626,327.555145 
M705.678284,397.861206 
	C703.497559,397.173950 701.716675,397.721893 700.553589,399.714508 
	C699.989319,400.681244 700.195435,401.795380 701.207031,402.308777 
	C702.965210,403.200989 704.802673,403.091278 706.321350,401.752930 
	C707.588867,400.635895 708.209351,399.331696 705.678284,397.861206 
M726.701355,342.343658 
	C728.021423,344.998108 729.908752,345.484802 732.176025,343.577606 
	C733.206848,342.710510 734.039795,341.200195 732.808472,340.177856 
	C730.672180,338.404053 728.582520,339.040710 726.972473,341.245605 
	C726.877808,341.375244 726.828003,341.537720 726.701355,342.343658 
M663.969604,450.477356 
	C665.105347,449.340637 666.084167,448.053711 664.322876,446.796204 
	C662.882996,445.768158 661.155762,445.951752 659.615051,446.747894 
	C658.680969,447.230591 658.028748,448.197174 658.521484,449.214478 
	C659.547363,451.332642 661.250793,451.930481 663.969604,450.477356 
M709.944702,388.778595 
	C712.542053,389.198761 714.914917,388.645477 714.934021,385.656189 
	C714.946533,383.694855 712.802856,383.209625 711.120789,383.814819 
	C708.953186,384.594757 707.048157,385.819031 709.944702,388.778595 
M728.299988,355.902130 
	C727.668091,355.424774 727.101990,354.722137 726.391296,354.514771 
	C724.668457,354.011963 723.149841,354.490601 722.180359,356.111908 
	C721.463074,357.311340 721.830933,358.334564 722.941711,359.048096 
	C724.500427,360.049347 726.084229,359.969940 727.399475,358.656555 
	C727.929932,358.126801 728.122620,357.258728 728.299988,355.902130 
M674.044617,440.478394 
	C675.556030,439.586914 676.948914,438.481384 676.111694,436.535339 
	C675.484558,435.077728 673.926025,435.202545 672.589722,435.408569 
	C671.136353,435.632721 670.003601,436.501190 669.976196,437.993927 
	C669.935913,440.190582 671.543884,440.665192 674.044617,440.478394 
M691.578552,131.610626 
	C689.212952,131.059631 686.967773,131.350967 686.779846,134.169968 
	C686.652832,136.075043 688.551208,137.065048 690.331421,136.598434 
	C692.743469,135.966202 694.201904,134.530563 691.578552,131.610626 
M738.045166,291.409119 
	C736.384644,292.037689 734.941650,292.979126 735.687561,294.993073 
	C736.180664,296.324615 737.561890,296.775299 738.983704,296.553070 
	C740.385437,296.334015 741.487183,295.586884 741.707275,294.113098 
	C742.039490,291.888397 740.714539,291.221130 738.045166,291.409119 
M638.708923,468.373383 
	C639.559326,466.641083 639.105347,465.516663 637.134155,465.275696 
	C635.496582,465.075500 633.822021,465.058624 632.757263,466.654572 
	C632.135254,467.586792 632.344482,468.580933 633.161011,469.277191 
	C634.969177,470.819031 636.719360,470.489075 638.708923,468.373383 
M666.667297,111.956444 
	C668.660950,111.930740 670.292847,111.378548 670.275818,108.998085 
	C670.267517,107.839966 669.305786,107.364296 668.289917,107.204094 
	C666.603638,106.938179 664.917908,107.020401 664.061584,108.777008 
	C663.159546,110.627434 664.305176,111.460510 666.667297,111.956444 
M738.005432,312.289490 
	C739.608582,311.288483 740.385620,309.908875 739.326355,308.176727 
	C738.648132,307.067719 737.316711,307.147308 736.184204,307.449738 
	C734.857117,307.804230 733.544800,308.574249 733.721069,310.082275 
	C733.950684,312.045776 735.518005,312.624939 738.005432,312.289490 
M648.080017,456.348297 
	C646.709473,456.992798 645.162842,457.716614 645.965271,459.559631 
	C646.619934,461.063446 648.211731,461.402496 649.755432,461.164062 
	C651.200317,460.940918 652.225403,459.948120 652.245483,458.517792 
	C652.278259,456.171997 650.471252,456.163422 648.080017,456.348297 
M610.092834,481.661713 
	C607.750549,480.291260 605.593140,480.341431 604.522400,483.102661 
	C603.940369,484.603516 605.276245,485.537354 606.716003,485.640137 
	C609.074280,485.808472 611.082458,485.369446 610.092834,481.661713 
M465.563263,496.858246 
	C463.269653,496.018768 461.121429,496.018555 460.599731,498.904602 
	C460.351898,500.275574 461.677765,501.516876 463.121033,501.439606 
	C465.593872,501.307190 467.389496,500.306549 465.563263,496.858246 
M624.923157,474.927612 
	C623.002563,472.558380 620.994263,472.921783 619.143372,474.915710 
	C618.098572,476.041199 618.790771,477.156342 619.901062,477.733093 
	C622.433350,479.048492 624.315247,478.511566 624.923157,474.927612 
M682.058289,121.406166 
	C681.687317,118.221855 679.746216,118.185181 677.443298,119.216492 
	C676.095520,119.820038 675.171631,121.100471 676.302124,122.359116 
	C678.114380,124.376854 680.190125,124.719925 682.058289,121.406166 
M740.116333,258.512909 
	C737.740173,258.376831 735.633728,259.030731 735.614258,261.725769 
	C735.601135,263.553192 737.473267,264.020508 738.964233,263.542450 
	C741.331543,262.783417 742.683899,261.330475 740.116333,258.512909 
M740.378174,275.131592 
	C738.456787,275.105438 736.641296,275.404541 736.144897,277.625824 
	C735.888611,278.772552 736.804932,279.412323 737.837341,279.669708 
	C739.322021,280.039856 740.870972,280.169037 741.934692,278.829193 
	C743.074829,277.393036 742.860535,276.092651 740.378174,275.131592 
M514.911621,505.663544 
	C516.380615,502.931885 514.784790,501.888824 512.462830,501.808289 
	C510.937744,501.755402 509.187561,502.816162 509.615051,504.532379 
	C510.243988,507.057190 512.317627,507.037018 514.911621,505.663544 
M653.796631,100.807335 
	C655.612427,100.963455 657.185730,100.595642 657.493835,98.495850 
	C657.654114,97.402779 656.883179,96.634293 655.841492,96.337166 
	C654.512573,95.958092 653.146240,95.984268 652.177856,97.097603 
	C650.845215,98.629745 651.503479,99.788513 653.796631,100.807335 
M719.648499,184.176132 
	C718.134399,184.970276 717.245728,186.060577 718.476807,187.676834 
	C719.365112,188.843033 720.713684,189.035278 722.038330,188.486771 
	C723.196594,188.007141 723.915527,187.036667 723.624512,185.755203 
	C723.215759,183.955444 721.916443,183.517212 719.648499,184.176132 
M593.284180,491.680603 
	C594.946289,491.237183 596.053894,490.358826 595.227661,488.501404 
	C594.677673,487.264923 593.405945,487.226196 592.220825,487.295197 
	C590.984131,487.367218 589.774353,487.782715 589.649902,489.135101 
	C589.466003,491.132507 591.067627,491.456268 593.284180,491.680603 
M543.060181,500.950226 
	C542.707520,503.705750 544.233398,504.607849 546.584473,504.111359 
	C547.963562,503.820129 549.043091,502.454224 548.385132,501.066040 
	C547.215881,498.598999 545.290100,499.107910 543.060181,500.950226 
M735.134460,226.692368 
	C733.061523,227.045166 731.030701,227.651337 731.867432,230.345428 
	C732.319763,231.801605 733.975281,232.093918 735.202271,231.343628 
	C737.079346,230.195740 738.363159,228.669586 735.134460,226.692368 
M696.179321,145.968277 
	C695.918884,149.057053 697.909546,149.107468 700.001709,148.612411 
	C701.391418,148.283585 702.609802,146.919678 701.905640,145.690842 
	C700.483948,143.209915 698.402771,143.949554 696.179321,145.968277 
M526.166565,503.032013 
	C525.847229,506.132263 527.954834,506.058289 529.940613,505.711090 
	C531.469299,505.443787 532.209229,504.100677 531.413147,502.770599 
	C530.068665,500.524017 528.234985,501.101288 526.166565,503.032013 
M711.979492,172.069656 
	C711.521790,175.453949 713.918945,174.881393 715.737854,174.553833 
	C717.138550,174.301605 718.163696,172.992691 717.298889,171.618057 
	C715.882324,169.366409 714.043335,170.099716 711.979492,172.069656 
M705.728638,158.014755 
	C704.580078,159.029663 704.059509,160.187881 705.496643,161.276901 
	C706.615234,162.124542 707.969299,162.096222 709.220276,161.424210 
	C710.155029,160.922073 710.855957,160.071259 710.451233,159.026077 
	C709.677063,157.026566 708.005371,157.194839 705.728638,158.014755 
M480.195801,499.405853 
	C478.336700,499.535797 476.208862,499.723724 476.867798,502.299805 
	C477.294952,503.969818 479.197937,504.202942 480.598389,503.491882 
	C482.614380,502.468414 483.259277,501.000305 480.195801,499.405853 
M497.039398,505.630157 
	C498.436401,504.939850 499.140869,503.878204 498.255585,502.435455 
	C497.424774,501.081421 496.005829,501.163422 494.693329,501.604034 
	C493.709991,501.934113 492.876923,502.676575 493.007202,503.791840 
	C493.241425,505.796722 494.790894,505.891388 497.039398,505.630157 
M445.174866,495.943207 
	C447.021820,497.363800 448.881531,497.460480 450.243500,495.451965 
	C451.055389,494.254669 450.124054,493.145477 448.939453,492.791382 
	C446.717133,492.126984 445.028656,492.648285 445.174866,495.943207 
M558.507446,499.302795 
	C559.595032,501.370972 561.057617,502.466522 563.139465,500.611877 
	C564.082947,499.771332 564.135132,498.341309 563.150024,497.519989 
	C561.235962,495.924072 559.546875,496.287964 558.507446,499.302795 
M415.808563,484.743073 
	C417.670959,485.752258 419.442047,485.793945 420.115173,483.480652 
	C420.603668,481.801849 419.156158,481.140656 417.743866,481.187866 
	C415.831879,481.251801 413.893890,481.569427 415.808563,484.743073 
M433.181396,487.353455 
	C431.420135,487.192627 429.494232,487.247986 429.617981,489.559082 
	C429.714722,491.365753 431.525116,491.946106 433.034607,491.428833 
	C435.053070,490.737091 435.395386,489.269043 433.181396,487.353455 
M574.946167,495.920410 
	C576.633118,497.198853 578.343445,497.570343 579.518677,495.421906 
	C580.168213,494.234558 579.493042,492.954468 578.209656,492.681458 
	C576.215637,492.257202 574.512512,492.699493 574.946167,495.920410 
M304.474579,151.857315 
	C306.971436,149.790329 307.176514,146.804993 307.680481,143.925262 
	C305.704865,146.170944 301.839600,147.489700 304.474579,151.857315 
M705.363831,352.169434 
	C708.008057,350.003876 710.652283,347.838318 713.296570,345.672791 
	C709.146179,347.116638 705.205994,348.805542 703.138672,354.149017 
	C704.253845,353.196136 704.618103,352.884888 705.363831,352.169434 
M735.008362,243.399338 
	C733.724304,245.959900 735.268005,246.668137 737.354919,246.731201 
	C738.622620,246.769501 739.703674,245.877579 739.531616,244.582748 
	C739.182068,241.951645 737.432617,242.114960 735.008362,243.399338 
M712.825439,331.375610 
	C711.240479,333.271759 709.046326,334.802979 709.019836,337.686279 
	C711.312317,333.863525 715.724915,332.025635 718.365723,327.827484 
	C715.851929,328.335480 714.833862,329.997253 712.825439,331.375610 
M733.025757,213.173416 
	C731.308777,211.823334 729.684082,211.839310 728.595154,213.841400 
	C728.054016,214.836472 728.795593,215.797531 729.815063,216.092072 
	C731.835999,216.675888 733.387024,216.313141 733.025757,213.173416 
M403.982880,477.649200 
	C405.942535,476.515442 406.228973,475.173004 404.213287,473.906677 
	C402.913330,473.089996 401.366486,473.440613 400.778900,474.797363 
	C399.776642,477.111511 401.435303,477.659943 403.982880,477.649200 
M637.256226,443.381622 
	C635.730103,443.882599 634.085571,444.177399 632.300293,446.903320 
	C636.338257,444.154236 640.063232,445.422791 643.249878,443.294403 
	C641.497498,443.294403 639.745117,443.294403 637.256226,443.381622 
M717.569519,298.911896 
	C717.051758,299.964905 715.902283,300.874207 716.827148,302.749878 
	C718.742493,299.262390 722.062561,297.196442 722.534973,293.189636 
	C721.003113,294.915070 719.471252,296.640503 717.569519,298.911896 
M724.830078,201.642838 
	C726.583862,203.079346 727.876526,202.643112 728.592834,200.591339 
	C728.887634,199.747101 728.515137,198.840759 727.608948,198.594925 
	C725.557068,198.038269 724.400452,198.801254 724.830078,201.642838 
M661.697266,426.385956 
	C658.326721,426.128998 655.056641,426.136017 653.080139,429.562256 
	C655.684082,427.340118 659.539978,428.923523 661.697266,426.385956 
M620.589783,453.958282 
	C620.255188,454.287903 619.920654,454.617523 619.586060,454.947144 
	C619.695679,455.039398 619.813354,455.220093 619.913879,455.211029 
	C622.714417,454.957703 625.513184,454.685089 628.312256,454.415710 
	C625.894653,452.734436 623.520813,453.109009 620.589783,453.958282 
M552.459839,482.258545 
	C554.438049,482.991913 556.416260,483.725281 558.394470,484.458649 
	C556.015869,481.745880 553.264465,480.291626 549.703857,481.457245 
	C550.426819,481.654144 551.149780,481.851044 552.459839,482.258545 
M583.524048,472.914398 
	C586.117371,473.446381 588.710754,473.978333 591.304077,474.510284 
	C588.426147,472.859558 585.754639,470.214600 582.221130,472.202423 
	C581.838013,472.417938 582.006775,472.784363 582.476746,472.846619 
	C582.641113,472.868408 582.807190,472.876617 583.524048,472.914398 
M613.488953,459.175537 
	C616.143738,458.238556 618.865234,459.707520 621.979675,459.216797 
	C617.425537,456.573090 615.621521,456.633881 613.488953,459.175537 
M672.472595,410.202209 
	C674.362122,409.336365 676.680664,409.337982 678.591919,407.440582 
	C673.338867,407.423676 672.556458,407.836029 670.269531,411.581970 
	C670.864990,411.202820 671.411194,410.855011 672.472595,410.202209 
M574.064575,475.037598 
	C574.021667,475.188599 573.904602,475.375671 573.955750,475.481018 
	C574.013000,475.598785 574.215088,475.684143 574.367310,475.712280 
	C577.105469,476.218781 579.845642,476.714447 582.585388,477.212433 
	C580.090515,475.454498 577.616028,473.790680 574.064575,475.037598 
M606.267944,462.030609 
	C605.979004,462.189117 605.671448,462.322815 605.410828,462.518982 
	C605.312622,462.592957 605.323364,462.811646 605.284424,462.964355 
	C608.250061,463.164276 611.215698,463.364197 614.181335,463.564148 
	C611.827820,462.241394 609.561157,460.767487 606.267944,462.030609 
M681.486206,395.819611 
	C681.231018,396.182953 680.694824,396.548706 681.454468,396.922150 
	C681.574463,396.981140 681.787781,396.912231 681.933594,396.847473 
	C684.745605,395.597992 687.554077,394.340271 690.363220,393.084259 
	C687.223450,393.010620 684.457092,393.901947 681.486206,395.819611 
M628.537842,449.004822 
	C628.297485,449.413269 626.401550,449.974579 628.189575,450.183258 
	C630.585999,450.462952 633.102234,449.716187 635.567017,449.410126 
	C633.385315,447.742645 631.252319,448.009796 628.537842,449.004822 
M697.764282,367.621582 
	C697.527771,368.058716 697.236633,368.477295 697.078796,368.941193 
	C697.005615,369.156281 697.191956,369.459625 697.379333,370.177826 
	C698.916748,367.302673 702.158386,366.451080 704.778015,362.895447 
	C701.257935,364.267395 699.541626,365.496338 697.764282,367.621582 
M694.650635,375.657715 
	C697.361023,373.952179 700.071350,372.246613 702.781738,370.541046 
	C699.401489,371.486115 695.371216,371.424225 694.650635,375.657715 
M686.125122,388.926819 
	C685.700989,389.409393 685.276917,389.891968 683.838013,391.529327 
	C687.963501,389.340485 690.766113,387.853485 694.805115,385.710510 
	C690.837952,386.164825 688.608154,387.093842 686.125122,388.926819 
z"/>
<path fill="#000000" opacity="1.000000" stroke="none" 
	d="
M636.251282,174.715088 
	C640.085815,178.511063 639.591858,180.869293 634.462158,182.065140 
	C631.567383,182.739944 628.532532,182.806152 625.564636,183.177551 
	C623.796082,183.398865 622.038208,184.074722 622.235535,186.101440 
	C622.393127,187.720123 623.304016,189.176971 625.658752,188.637573 
	C627.763306,188.155487 628.881409,190.065430 630.217590,191.243240 
	C635.024292,195.480133 640.592407,197.455566 647.511536,197.429871 
	C644.994507,190.766663 639.346191,188.528137 633.245972,185.573044 
	C637.292908,184.209549 639.531982,186.076904 641.742126,187.473206 
	C645.458374,189.821014 648.323486,193.098373 650.690979,196.769501 
	C653.117065,200.531464 652.060913,202.623611 647.548828,202.998657 
	C644.541870,203.248611 641.585388,202.761887 638.334717,201.998093 
	C647.199097,207.355453 648.921021,216.198120 650.099670,225.252060 
	C650.370789,227.334564 650.810730,229.810394 648.423035,231.078552 
	C646.052124,232.337753 644.321960,230.612854 642.652222,229.251083 
	C636.659119,224.363510 631.641479,218.739594 630.193665,210.794235 
	C627.119568,211.828720 627.154541,213.982803 626.261414,215.477875 
	C625.315735,217.061050 624.515076,218.941345 622.419373,219.030853 
	C620.223328,219.124649 619.367981,217.207687 618.593262,215.567032 
	C615.153748,208.283417 613.339355,200.855209 616.425476,192.890457 
	C616.996521,191.416672 618.501343,189.637085 616.527710,187.900345 
	C614.369995,188.502808 615.224854,190.306854 614.981750,191.607635 
	C614.493164,194.221069 614.384827,196.945145 613.582520,199.451675 
	C612.152832,203.918549 609.401062,204.324509 606.372253,200.776825 
	C603.203674,197.065536 602.089905,192.225571 599.322327,187.406006 
	C596.050476,193.523361 593.474731,190.231400 590.686768,187.472778 
	C587.222778,184.045303 585.353149,179.515030 582.536804,175.600037 
	C577.512756,180.325714 576.235168,180.429047 570.995667,175.802109 
	C567.914307,173.080994 565.163269,169.985794 562.167542,166.961777 
	C559.404724,173.758041 558.533508,174.040421 552.273987,171.247971 
	C544.382263,167.727356 538.884094,161.945938 536.076111,153.852753 
	C534.877930,150.399307 532.799438,148.602264 529.410706,147.970459 
	C524.969421,147.142426 520.696594,145.773209 516.559204,143.975952 
	C514.458618,143.063492 512.371704,143.045013 510.245880,143.872833 
	C509.315338,144.235184 508.376678,144.666748 507.403320,144.815140 
	C497.035400,146.395935 489.315491,150.501816 485.830536,161.718216 
	C483.854492,168.078217 476.778320,170.722305 470.473785,172.699585 
	C467.188751,173.729858 466.280212,172.736755 464.162689,166.967056 
	C461.423950,170.268097 459.033264,173.588776 456.196381,176.470169 
	C451.473297,181.267441 449.093231,181.369568 443.532257,177.380951 
	C441.118195,181.289154 438.783966,185.282791 435.590515,188.615936 
	C434.086853,190.185410 432.532501,192.278793 430.151367,191.329208 
	C426.825653,190.002960 425.703003,191.449326 424.774872,194.266907 
	C424.157776,196.140182 423.108337,197.899460 422.072968,199.600571 
	C420.022949,202.968796 417.911804,206.374512 413.153687,204.279846 
	C410.815308,207.399918 411.092590,210.996109 409.626007,213.959427 
	C408.456085,216.323257 407.733704,219.284851 404.791504,219.920731 
	C401.571930,220.616577 400.937531,217.381348 399.396179,215.578278 
	C399.086212,215.215652 398.609253,214.995804 398.193054,214.698532 
	C395.832764,214.808289 395.274231,216.809311 394.583527,218.371414 
	C392.192383,223.779312 387.637024,227.241791 383.440033,230.997375 
	C382.020172,232.267960 380.198669,233.711960 378.036682,232.555496 
	C375.791504,231.354538 375.729462,229.084381 375.795410,226.863144 
	C375.964844,221.155182 376.770660,215.571976 379.269775,210.364349 
	C380.445343,207.914795 380.566803,206.290405 377.529388,204.836197 
	C373.593475,202.951782 373.139557,199.878845 375.544952,196.159866 
	C378.962646,190.875824 383.479767,186.829544 389.398834,184.697098 
	C386.211243,176.446411 386.361847,176.386963 393.153595,171.175125 
	C397.077118,168.164261 401.797852,167.117416 406.204437,165.357620 
	C403.720795,158.172867 404.032318,157.756424 410.792023,154.136658 
	C416.989807,150.817780 423.669708,150.285614 431.191132,150.679123 
	C430.315582,149.360092 430.005768,148.820984 429.627747,148.334930 
	C425.649292,143.219482 426.588593,140.620407 432.889038,138.809158 
	C441.394073,136.364136 449.638550,136.544540 457.582886,141.197922 
	C457.634216,140.544800 457.780853,140.174530 457.657806,140.022537 
	C455.446747,137.290741 452.517456,134.363358 454.073822,130.757996 
	C455.623138,127.168922 459.946564,128.160095 463.025085,127.972778 
	C471.599304,127.451057 478.898590,130.617294 485.096893,136.656525 
	C489.290619,140.742630 492.924408,140.630280 498.591278,136.694519 
	C496.263031,133.913040 493.910156,131.187317 491.655853,128.382416 
	C489.816345,126.093643 488.920532,123.574440 491.586975,121.341202 
	C494.215912,119.139404 496.951874,118.820656 499.446594,121.790565 
	C502.138245,124.994995 505.568604,127.422829 508.570679,130.278534 
	C511.873077,133.419861 514.547424,133.058167 517.702148,130.417725 
	C519.453552,128.951828 521.448608,127.777100 523.912170,126.070564 
	C519.953247,134.374329 513.859985,136.392456 507.047333,132.153366 
	C503.632263,130.028366 500.857605,127.120880 498.069336,124.247162 
	C497.232239,123.384453 496.811005,121.729843 494.354431,122.499725 
	C496.585144,130.175171 506.402008,131.014297 509.745178,138.148697 
	C511.851379,136.960526 514.903198,137.390228 518.188599,138.609924 
	C528.553711,142.457855 539.634949,143.216812 550.328918,145.672897 
	C555.995605,146.974350 561.612061,148.494492 567.630066,149.957916 
	C568.008911,149.999924 567.972229,149.968994 567.972229,149.968994 
	C579.031555,154.073105 589.319763,159.705063 599.687805,165.907196 
	C600.008972,165.999344 599.984009,165.972382 599.984009,165.972382 
	C604.601624,168.995483 605.484253,172.528549 603.653259,178.090988 
	C601.432556,184.837326 604.590027,190.929184 609.537659,197.056717 
	C614.071533,188.212936 611.168945,181.259399 606.840759,174.524460 
	C610.220459,171.590027 613.102539,171.808380 616.627441,174.107697 
	C622.392395,177.868225 628.815735,177.931885 635.634766,175.473053 
	C635.974487,175.033905 636.251282,174.715088 636.251282,174.715088 
M483.880737,138.748901 
	C478.714630,133.251801 472.404236,130.336929 464.817383,130.337250 
	C463.320709,130.337326 461.524109,130.203949 460.888641,131.842606 
	C460.135101,133.785858 461.812775,134.917511 463.128662,135.850189 
	C466.688934,138.373672 470.496948,140.363708 474.970306,140.776733 
	C477.621124,141.021500 480.896362,140.555191 482.779938,141.930252 
	C488.567810,146.155701 493.154358,141.812332 498.224945,141.112076 
	C493.582184,140.362106 488.492279,144.772202 483.880737,138.748901 
M557.046387,163.936172 
	C554.537964,154.982315 548.883850,149.289795 539.719666,146.649231 
	C539.811584,155.138199 547.705688,164.790665 555.272644,166.323303 
	C556.861755,166.645157 557.485718,166.176849 557.046387,163.936172 
M433.163239,154.244934 
	C424.009888,151.383148 415.890808,152.852051 411.777771,158.168945 
	C412.855652,160.206619 414.855927,160.452835 416.829651,160.651184 
	C422.222565,161.193130 427.430176,160.295929 432.491119,158.457031 
	C433.733490,158.005615 435.075104,156.986649 436.267059,157.694504 
	C439.060760,159.353607 440.847717,157.849487 442.778198,156.029312 
	C439.311859,157.984528 436.718567,155.627350 433.163239,154.244934 
M472.646210,156.265137 
	C470.880341,159.256363 469.467987,162.346771 469.615356,166.023209 
	C479.074799,164.157700 486.989441,154.981995 486.443268,146.691452 
	C480.860931,148.055954 476.536194,151.212814 472.646210,156.265137 
M646.070129,219.993240 
	C644.960205,210.185684 640.287170,203.869324 633.721497,203.302094 
	C632.609741,212.312744 638.126587,221.610123 646.047241,224.055496 
	C646.947327,222.989883 646.331421,221.852478 646.070129,219.993240 
M452.091644,141.237061 
	C447.154633,139.374481 442.140717,138.748688 437.021515,140.415665 
	C434.634766,141.192886 433.471161,142.418671 435.813110,144.606079 
	C439.862427,148.388184 453.901306,149.151443 458.768768,145.823685 
	C457.297028,143.658920 454.951508,142.720596 452.091644,141.237061 
M572.947876,158.616852 
	C570.602478,155.562653 567.671326,153.317902 564.060364,151.805099 
	C562.076050,159.570877 569.021301,170.599228 577.566223,173.107925 
	C577.856995,167.843719 576.238281,163.349808 572.947876,158.616852 
M390.045502,215.397003 
	C391.735138,211.666382 393.184967,207.904373 392.052124,203.592331 
	C383.939240,206.104691 378.809967,216.031601 381.209808,224.178513 
	C384.980347,222.379974 387.393555,219.277725 390.045502,215.397003 
M587.900818,176.459137 
	C589.880371,179.320145 591.191895,182.831039 594.980469,184.217987 
	C597.362122,174.927139 593.519836,165.543991 585.939758,162.029465 
	C584.029114,166.952179 585.765747,171.378494 587.900818,176.459137 
M403.556458,168.819595 
	C399.469727,170.304504 395.331696,171.717010 392.344818,176.079407 
	C398.982391,178.188080 404.348236,176.967529 409.557983,174.446594 
	C412.582489,172.983078 415.072144,169.923950 419.268707,171.448975 
	C414.577881,168.142990 409.527557,167.997055 403.556458,168.819595 
M453.445068,159.006317 
	C450.813232,162.902954 449.181396,167.077255 449.569397,171.959534 
	C457.309387,170.273956 463.833282,159.781158 461.652466,152.598267 
	C458.476654,153.809250 455.838074,155.643341 453.445068,159.006317 
M380.223358,195.080063 
	C379.773071,198.027588 381.802368,197.371063 383.400818,197.222549 
	C391.347565,196.484253 396.134064,189.795929 404.013733,187.259293 
	C395.655396,184.041534 387.357880,186.888168 380.223358,195.080063 
M625.811035,202.473465 
	C625.729553,197.755142 623.836060,193.755661 621.306519,189.538040 
	C616.622620,197.184723 617.198364,205.125519 622.613953,211.207672 
	C625.126282,209.124237 625.644165,206.290741 625.811035,202.473465 
M438.925232,174.231216 
	C439.676392,170.624298 441.309204,167.062973 439.767212,163.155045 
	C432.714355,167.419510 429.499329,175.774048 432.116577,182.864212 
	C435.365753,181.048172 437.109955,178.095657 438.925232,174.231216 
M417.912231,195.013809 
	C422.958221,189.304626 422.358063,182.719208 421.430267,175.667725 
	C415.214630,179.258881 413.143982,190.350220 417.912231,195.013809 
M406.740448,194.265381 
	C406.368530,193.204330 406.201630,191.950470 404.643188,191.998688 
	C399.842712,198.614227 399.712585,207.148773 404.551453,211.127014 
	C407.554321,206.009872 408.543274,200.709946 406.740448,194.265381 
M600.931152,175.638336 
	C600.760986,174.335907 600.811096,172.847488 598.546021,173.092514 
	C598.065125,175.585220 598.077942,177.958740 599.783447,181.396317 
	C600.338440,178.881973 600.618774,177.611954 600.931152,175.638336 
z"/>
<path fill="#000000" opacity="1.000000" stroke="none" 
	d="
M421.030579,387.020111 
	C419.746277,386.731537 418.462006,386.442932 417.084229,386.133331 
	C417.024231,386.886475 416.967102,387.603485 416.900360,388.441010 
	C416.316254,388.285248 415.782745,388.269440 415.398804,388.021790 
	C408.496552,383.569641 400.660095,381.404022 393.016815,378.730438 
	C385.743378,376.186249 379.658356,371.978699 375.802307,365.081787 
	C373.072784,360.199829 373.793518,359.005676 379.234802,358.796082 
	C381.001129,358.728027 382.865234,359.211761 385.265930,357.848572 
	C380.746216,352.680115 377.911407,346.761902 376.987701,340.092041 
	C376.502716,336.589844 374.381104,332.033203 378.083038,329.956726 
	C381.591400,327.988861 384.207336,332.306580 386.807831,334.360474 
	C392.361176,338.746429 394.991699,345.051300 396.929382,352.288635 
	C399.513947,349.923340 399.692749,346.905579 401.253082,344.700836 
	C403.389526,341.682037 405.221558,341.365509 407.136444,344.823822 
	C409.336487,348.797119 410.913605,352.970337 411.305725,357.527313 
	C411.446625,359.164581 411.153900,360.881622 412.383942,362.367249 
	C414.459930,361.713135 414.380554,358.151825 417.074768,358.587036 
	C419.701477,359.011414 420.598328,361.521332 421.674652,363.486206 
	C423.647888,367.088318 425.292480,370.870514 427.348999,375.149628 
	C430.769623,370.766144 433.078979,373.505585 435.633575,375.902435 
	C438.821014,378.893066 440.870605,382.721771 443.604248,386.503815 
	C449.725128,381.657104 454.436981,385.186523 458.897308,389.087463 
	C461.412842,391.287445 463.460114,392.166565 467.231750,391.382080 
	C474.699829,389.828766 480.092987,394.740295 484.780579,399.810944 
	C486.764374,401.956818 488.126831,404.785126 489.355865,407.492035 
	C490.732330,410.523712 492.561890,413.490814 495.632141,414.231812 
	C503.224121,416.064148 510.068909,422.220459 518.797913,418.279144 
	C520.944275,417.310059 523.684998,417.410126 527.322083,418.603485 
	C520.113098,420.945526 514.544861,424.314545 507.206390,421.599609 
	C499.173065,418.627625 490.742004,416.524170 481.468994,416.255920 
	C484.080536,418.646210 486.890961,417.680267 489.330109,418.277222 
	C495.952087,419.897827 502.734711,420.879761 509.138916,423.363678 
	C510.686707,423.963959 512.327698,424.623779 513.998474,424.089661 
	C521.731873,421.617310 529.830078,420.424194 537.701538,417.199585 
	C538.001160,417.004547 537.981323,416.990112 537.981323,416.990112 
	C543.236633,418.484253 548.028809,416.025574 552.942993,415.055389 
	C573.206787,411.054932 590.935425,401.669708 607.493530,388.969788 
	C607.982727,389.020752 608.330811,389.376923 608.330811,389.376923 
	C617.215576,393.841156 629.397278,390.472443 633.613342,382.100555 
	C634.420288,380.498047 635.276062,380.890198 636.175659,381.022430 
	C637.724976,381.250183 638.382263,382.383057 638.208252,383.937958 
	C637.984680,385.935852 636.575317,387.190643 635.202332,388.380035 
	C627.801880,394.790802 619.576050,398.477234 609.518738,395.981750 
	C608.451843,395.717041 607.281921,395.085815 605.996582,396.583740 
	C607.923462,398.509918 610.681885,397.518890 612.784973,398.488892 
	C614.571777,399.312988 616.681946,399.457184 618.431946,400.335022 
	C621.566345,401.907318 622.185486,404.297058 619.123413,406.464508 
	C611.183899,412.084625 602.613403,415.111725 592.800415,411.897980 
	C590.192993,411.044067 587.660461,409.693329 583.697144,410.456879 
	C588.268127,412.962067 592.378845,414.302338 595.741150,416.962189 
	C599.176758,419.680023 599.148254,421.753143 595.101379,423.460327 
	C586.323608,427.163269 577.483948,428.166534 568.670471,423.266541 
	C566.451477,422.032867 564.266663,420.437927 560.622070,420.180328 
	C564.192871,423.402710 567.312073,425.820496 569.939758,428.688538 
	C573.280701,432.335052 572.498840,434.440948 567.588623,435.414062 
	C558.092041,437.296112 549.322632,435.700562 541.850037,429.207031 
	C536.035278,424.154022 533.989441,423.853424 526.714661,427.768311 
	C528.042175,431.081787 531.507935,432.662170 533.214172,435.587128 
	C534.540039,437.859924 537.464661,440.225555 534.131531,442.911530 
	C531.265137,445.221313 528.744873,444.857758 525.973389,441.864746 
	C514.573120,429.553131 512.770142,429.580719 501.184814,441.565277 
	C498.590912,444.248566 496.266174,445.991547 492.652863,443.396851 
	C489.006775,440.778564 490.872467,437.951721 491.992584,434.983612 
	C493.032654,432.227539 496.560303,429.286469 493.403412,426.468750 
	C489.829224,423.278595 487.269318,427.297485 484.996704,429.279449 
	C477.903290,435.465698 469.593506,436.876678 460.694092,436.002045 
	C457.232788,435.661865 453.621826,435.130005 454.284088,429.793610 
	C454.687622,426.541840 451.584076,426.943237 449.557800,427.023590 
	C443.651703,427.257629 437.937866,426.545227 432.407654,424.396332 
	C429.314209,423.194305 427.061188,421.684753 428.399231,417.737518 
	C429.336090,414.973785 427.266602,414.247101 425.169434,413.867279 
	C420.368896,412.997864 415.833984,411.338104 411.529846,409.120300 
	C403.382599,404.922302 403.275757,403.109619 411.077393,397.947235 
	C402.928406,397.006653 396.267670,393.611664 390.610535,388.258972 
	C389.545441,387.251221 388.583313,386.041229 387.902283,384.751099 
	C387.372620,383.747650 387.280426,382.382019 388.425995,381.572388 
	C389.623077,380.726410 390.464661,381.487701 391.431030,382.338745 
	C393.799194,384.424164 396.196869,386.523285 398.816132,388.265961 
	C403.442169,391.343811 408.470306,392.580750 414.010559,390.841309 
	C416.700134,389.996918 419.481567,389.167816 422.807617,391.137421 
	C425.969849,394.378876 428.959991,396.620789 432.686127,397.738159 
	C429.550293,395.342163 426.810852,392.367798 422.966187,391.024414 
	C422.393921,389.876678 421.821655,388.728943 421.314453,386.963165 
	C423.927704,377.579254 424.142090,369.206635 417.184875,361.317963 
	C415.247375,365.008667 414.870789,368.368378 415.255829,371.819366 
	C415.874512,377.364563 418.658966,382.121613 421.030579,387.020111 
M383.704407,361.156860 
	C382.203888,360.948883 380.710052,359.749542 379.085663,360.929047 
	C384.038300,369.577850 391.126495,373.802063 401.029785,372.767822 
	C402.503540,372.613922 403.881073,372.673492 404.907257,371.107849 
	C409.097717,364.714355 408.773132,352.485565 403.941254,345.928711 
	C398.576172,353.602509 402.006226,361.181396 404.338501,368.488007 
	C400.504425,370.280182 398.009949,369.038727 395.441620,366.807861 
	C392.299072,364.078247 388.785553,361.786072 383.704407,361.156860 
M459.252747,429.319672 
	C472.470123,432.165710 482.459991,428.467224 484.737274,419.449768 
	C474.870148,419.360779 465.888428,421.008606 459.252747,429.319672 
M557.743225,430.733459 
	C560.802368,430.595825 564.007568,431.296417 566.894592,429.417511 
	C561.342590,421.522827 549.583557,417.778381 541.252197,421.168945 
	C544.973511,426.874268 550.239746,429.906219 557.743225,430.733459 
M567.622314,414.120728 
	C566.062622,414.563812 566.410828,415.213898 567.329346,416.094543 
	C574.174316,422.657074 585.822815,423.459473 593.661133,417.852539 
	C585.767883,412.664276 577.370789,410.886169 567.622314,414.120728 
M443.487640,412.908600 
	C439.265289,413.423035 435.760651,415.516846 432.134583,417.796600 
	C443.121948,423.721497 449.937866,422.881500 459.480133,414.444946 
	C454.420227,412.893890 449.513611,411.633789 443.487640,412.908600 
M594.195679,406.759247 
	C602.778931,409.284882 610.857605,407.457611 616.442139,401.684784 
	C607.195068,397.608246 598.628540,398.873779 589.899414,404.600098 
	C591.499084,405.466949 592.501709,406.010284 594.195679,406.759247 
M382.358826,343.975311 
	C384.255615,348.987183 386.937927,353.282410 392.214783,355.559631 
	C395.170410,348.071625 388.721741,335.940277 380.697815,333.363831 
	C381.488007,336.689484 380.741699,340.081238 382.358826,343.975311 
M471.155304,393.559631 
	C470.988800,393.561188 470.805695,393.520050 470.660461,393.576416 
	C470.517273,393.631958 470.412323,393.786133 470.290588,393.897003 
	C473.175873,396.684387 473.377136,400.609192 474.802368,404.026917 
	C476.996552,409.288635 481.355652,412.447266 487.367737,412.816956 
	C488.188721,410.130798 486.910034,408.259705 486.014557,406.340637 
	C483.083984,400.060089 477.577789,396.675964 471.155304,393.559631 
M441.578339,391.622986 
	C440.559204,385.128082 437.358368,380.001160 432.012268,375.915161 
	C430.108398,385.828857 433.486237,394.408142 440.646423,397.785736 
	C440.970001,395.935303 441.280121,394.161804 441.578339,391.622986 
M456.458313,402.974304 
	C458.553589,404.736267 460.648865,406.498260 462.967194,408.447784 
	C464.460480,399.723083 459.090912,390.990936 450.478546,387.086639 
	C451.746613,392.290649 452.112793,398.011780 456.458313,402.974304 
M410.566864,402.521729 
	C412.149933,403.411682 413.745117,404.280792 415.313965,405.195129 
	C421.903107,409.035645 429.645935,408.510925 435.657562,403.677246 
	C430.379425,400.821045 424.839935,399.127960 418.945496,399.219360 
	C415.844116,399.267456 412.318848,398.901123 410.566864,402.521729 
M467.862885,413.594696 
	C470.861023,414.324371 473.859192,415.054016 476.857330,415.783691 
	C465.546173,412.333069 454.433350,408.584747 443.591125,403.989685 
	C450.889496,408.516388 458.849701,411.297638 467.862885,413.594696 
M522.400574,430.178253 
	C525.262756,432.778198 528.124878,435.378113 530.987061,437.978058 
	C528.469727,432.368378 523.864136,429.277466 518.338501,427.335876 
	C519.513184,428.150452 520.687927,428.965057 522.400574,430.178253 
M502.664246,429.371429 
	C499.721741,431.510498 496.864532,433.731659 495.078064,437.023834 
	C498.418488,433.417511 502.851685,431.156494 506.061737,427.367767 
	C505.118805,427.934143 504.175842,428.500519 502.664246,429.371429 
z"/>
<path fill="#000000" opacity="1.000000" stroke="none" 
	d="
M519.996521,300.849121 
	C519.384399,294.079803 521.950134,287.292938 516.999023,281.663025 
	C516.302673,280.871155 516.533875,279.665558 517.283813,278.891876 
	C521.750366,274.284058 520.105347,268.911163 518.891724,263.827240 
	C517.700867,258.838562 515.964600,254.048752 512.780762,249.734146 
	C508.820282,244.367203 511.197784,240.138214 517.768311,239.724380 
	C527.264343,239.126266 536.731323,240.152725 546.216492,240.075851 
	C548.915039,240.053970 551.221802,240.964798 551.910339,243.919006 
	C552.591614,246.841660 551.703125,249.362488 548.922424,250.632263 
	C544.376770,252.708008 543.139648,256.503265 543.482117,260.901154 
	C543.946594,266.867249 543.586304,272.897308 544.916809,278.805237 
	C545.507080,281.426270 545.380493,284.112823 544.632996,286.725677 
	C543.142883,291.933746 543.191406,297.269257 543.371826,302.601196 
	C543.490967,306.121613 544.290222,309.085571 548.560486,309.984161 
	C551.427856,310.587555 552.331360,313.129242 552.014954,315.860229 
	C551.692505,318.642456 549.937317,320.786987 547.218140,320.859741 
	C537.071960,321.131165 526.914856,321.164032 516.765198,321.031128 
	C513.654358,320.990387 512.681274,317.485596 510.089325,315.195312 
	C506.559082,323.929016 499.826935,322.220276 493.057312,321.591309 
	C486.613251,320.992554 480.078796,321.393036 473.585083,321.290863 
	C470.395569,321.240692 467.027283,321.297943 465.758911,317.427765 
	C464.658356,314.069580 465.877686,311.809235 470.037537,309.011780 
	C469.194672,302.244934 467.168182,300.349762 460.468994,300.291199 
	C456.138367,300.253326 451.805695,300.337830 447.475159,300.425812 
	C444.194946,300.492401 441.725800,301.936584 440.326202,304.979828 
	C439.436432,306.914520 438.971924,308.650055 441.347504,310.111572 
	C444.118439,311.816376 444.765961,314.524109 443.789703,317.537933 
	C442.711426,320.866730 440.216187,322.084442 436.834808,322.021362 
	C430.507721,321.903351 424.175964,321.983246 417.851379,321.799927 
	C414.131165,321.692169 411.482849,320.034363 411.019684,315.938660 
	C410.572388,311.983643 412.553192,310.164001 416.242981,309.433411 
	C418.619202,308.962921 420.454041,307.459106 421.482025,305.172638 
	C425.776031,295.622009 430.285553,286.158875 432.119507,275.705475 
	C432.834564,271.629791 435.803894,268.637207 437.943329,265.321167 
	C442.651001,258.024475 446.873444,250.489807 450.569946,242.647079 
	C451.828064,239.977768 453.259857,237.664352 456.775574,237.807648 
	C460.508484,237.959808 464.079773,238.027542 466.099213,242.113358 
	C468.532959,247.037445 471.220062,251.839462 473.891663,256.641968 
	C476.328552,261.022583 479.075775,265.114319 483.352509,268.058990 
	C487.301697,270.778076 488.364960,274.866333 487.896851,279.508698 
	C486.801147,290.375061 493.231750,298.300110 498.651825,306.595917 
	C498.974091,307.089142 499.957733,307.706665 500.299316,307.547729 
	C505.790619,304.993042 510.664856,309.218231 515.925720,308.883911 
	C521.324646,308.540833 519.432312,304.274811 519.996521,300.849121 
M450.435822,251.867004 
	C444.272675,265.161774 438.350311,278.575775 431.850159,291.703674 
	C428.315979,298.841461 426.556488,307.153046 419.539368,312.349518 
	C422.499634,311.496429 425.016174,310.103760 426.677887,307.488770 
	C427.489044,306.212341 428.257050,305.030273 429.844452,304.488556 
	C433.298004,303.310120 435.179230,300.666290 435.975311,297.215515 
	C436.673584,294.188873 438.490356,292.908478 441.603790,292.599274 
	C449.261108,291.838745 456.901703,291.731384 464.543182,292.524384 
	C472.382782,293.337921 478.255188,304.862518 474.985687,311.006836 
	C483.372314,313.256866 492.341309,312.558197 502.756012,313.315399 
	C497.266205,310.982483 493.982544,308.076263 491.955383,303.891266 
	C489.196808,298.196198 486.414337,292.512573 483.612732,286.838562 
	C476.533051,272.500458 469.489410,258.144073 462.311737,243.855072 
	C460.441528,240.131897 456.655090,240.051575 454.553131,243.590134 
	C453.111542,246.017029 452.010803,248.646393 450.435822,251.867004 
M537.882080,308.805634 
	C538.973389,308.260956 539.777466,307.639587 539.638000,306.159485 
	C538.089417,289.713898 539.086060,273.218597 538.707764,256.749481 
	C538.587280,251.505630 538.136963,246.222672 544.878845,243.739609 
	C536.893677,243.402496 529.426025,242.660248 521.037170,243.943604 
	C525.922302,250.084778 524.936401,256.500458 525.116699,262.776428 
	C525.499878,276.113617 524.217468,289.403168 524.189941,302.724304 
	C524.180664,307.212524 522.558533,310.721344 517.514221,313.034973 
	C523.246033,313.034973 528.040771,313.021423 532.835449,313.040375 
	C535.443420,313.050659 537.481079,312.410339 537.882080,308.805634 
z"/>
<path fill="#000000" opacity="1.000000" stroke="none" 
	d="
M383.363525,310.055725 
	C381.704468,307.885925 380.844574,305.784607 380.795654,303.345062 
	C380.461884,286.699799 380.165161,270.053253 379.696716,253.411652 
	C379.588470,249.566711 381.022675,247.765381 384.863800,247.993088 
	C389.181213,248.249008 393.520538,248.339539 397.806885,248.859863 
	C402.238556,249.397827 405.074768,252.528595 408.206757,257.150330 
	C408.206757,251.288254 408.206757,246.720123 408.206757,241.839706 
	C394.798492,243.939728 381.690643,243.389297 368.570282,241.797501 
	C372.329895,239.224808 376.597168,239.333618 380.548248,239.506973 
	C388.896027,239.873215 397.158386,239.772675 405.463989,238.793457 
	C412.135406,238.006912 413.956512,239.507141 414.332367,246.262970 
	C414.617493,251.387680 414.146362,256.564270 413.844299,261.707947 
	C413.681000,264.488434 412.127563,266.426392 409.289703,266.900513 
	C406.402863,267.382874 404.518250,265.906555 403.422638,263.324646 
	C401.940826,259.832611 400.093323,256.784424 395.867401,256.145142 
	C390.334412,255.308182 386.459259,257.897949 386.229004,263.473846 
	C385.700226,276.278259 385.448914,289.098358 385.362549,301.913971 
	C385.338684,305.452026 385.433594,309.277954 390.478424,310.326904 
	C393.008911,310.853058 393.695312,313.486694 393.373230,316.040192 
	C393.025177,318.799591 391.648895,321.056061 388.749298,321.091522 
	C378.430359,321.217834 368.104767,321.189606 357.788940,320.931061 
	C354.871796,320.857941 352.888702,318.926636 352.819489,315.696167 
	C352.756439,312.755707 353.626465,310.365906 356.915619,309.789520 
	C359.704132,309.300873 360.794678,307.590820 360.954224,304.926727 
	C361.721619,292.112091 360.967621,279.306641 360.387695,266.523163 
	C360.172089,261.770172 357.074829,258.221954 351.891754,257.334595 
	C347.171600,256.526520 344.845825,259.424042 343.113220,263.117798 
	C341.750458,266.023224 339.684631,267.616577 336.376892,266.898407 
	C333.255219,266.220642 332.047119,263.892761 332.009583,260.996948 
	C331.940643,255.672943 331.876099,250.334641 332.189056,245.024643 
	C332.422394,241.065598 334.698029,237.911163 338.881958,238.610672 
	C345.494720,239.716217 352.134003,239.684143 358.752411,240.245972 
	C359.678955,240.324631 360.568329,240.841629 361.414948,241.661285 
	C353.682617,244.269394 345.980865,243.105865 337.883301,241.338867 
	C337.114685,246.848770 337.217163,252.056198 337.675964,257.738251 
	C342.795349,246.590881 352.687286,248.245590 361.839539,248.010422 
	C364.905945,247.931641 366.227814,249.353104 366.293793,252.568436 
	C366.652710,270.065125 365.318848,287.517883 365.078644,304.997375 
	C365.038300,307.930206 363.652618,310.359863 360.493103,312.332123 
	C369.328247,312.358917 377.144836,314.367035 385.091949,312.381195 
	C385.485199,311.213135 383.980408,311.108521 383.363525,310.055725 
z"/>
<path fill="#000000" opacity="1.000000" stroke="none" 
	d="
M598.116577,241.714355 
	C600.740906,247.511139 600.223511,249.408340 594.936584,251.817398 
	C592.034424,253.139816 591.032471,255.180283 590.973755,258.069336 
	C590.689941,272.043304 591.431030,286.023407 590.594055,299.999298 
	C590.366089,303.806396 592.044678,306.183990 596.561218,306.043060 
	C601.564819,305.886871 606.519653,305.588074 611.455933,304.758606 
	C616.374512,303.932129 618.377197,300.014130 620.720703,296.370422 
	C622.700745,293.292023 623.990845,288.423248 629.028198,290.461395 
	C633.954956,292.454834 632.322327,297.074036 631.706848,300.957214 
	C630.951965,305.718842 630.169678,310.479706 629.229004,315.207031 
	C628.478638,318.978119 626.018250,320.907715 622.148621,320.931396 
	C603.506165,321.045624 584.863708,321.172333 566.221130,321.236450 
	C562.956482,321.247681 560.205688,320.183746 559.755554,316.411407 
	C559.369690,313.177551 559.916687,310.373352 563.835449,309.602631 
	C565.935730,309.189606 566.820984,307.687805 567.005981,305.658203 
	C567.186829,303.673004 567.731750,301.662354 567.557800,299.712769 
	C566.326416,285.912750 567.112793,272.097076 567.093506,258.289398 
	C567.088379,254.598267 565.728027,251.938095 562.359741,250.213989 
	C559.739319,248.872650 559.369019,246.384171 559.823792,243.744781 
	C560.232422,241.373306 562.038025,240.368301 564.136108,240.286285 
	C574.608887,239.876816 585.088745,239.553467 595.552612,240.483429 
	C596.332336,240.552734 597.068848,241.108246 598.116577,241.714355 
M586.147461,284.184967 
	C586.015808,275.523834 586.034424,266.856934 585.703064,258.203461 
	C585.455139,251.728226 585.583374,245.715668 593.504822,243.660370 
	C585.070251,243.660370 576.635681,243.660370 568.219055,243.660370 
	C575.312134,254.554276 572.003479,266.153656 571.501465,277.099426 
	C570.980042,288.469238 573.004150,300.059082 569.550964,311.274231 
	C581.958008,314.598114 617.421570,314.832275 622.513245,311.609558 
	C621.197266,310.240662 618.750671,312.388397 617.338623,309.277740 
	C624.119385,306.147736 627.556580,300.584839 627.116638,292.857391 
	C625.797485,294.698669 624.857544,296.749329 623.775513,298.722046 
	C620.528381,304.642303 615.759155,308.635803 608.848267,309.030304 
	C602.537415,309.390533 596.192871,309.142975 589.863708,309.210846 
	C587.315063,309.238190 586.456055,308.286133 586.632629,305.573120 
	C587.075989,298.761139 586.955505,291.928223 586.147461,284.184967 
z"/>
<path fill="#000000" opacity="1.000000" stroke="none" 
	d="
M690.531372,308.297119 
	C686.314880,316.816345 678.585693,319.835541 670.597778,321.505615 
	C661.469238,323.414154 652.389160,322.174133 643.942566,317.669861 
	C640.468994,315.817535 638.020264,313.172058 637.544373,309.303345 
	C636.869202,303.813934 637.505188,298.336670 639.370972,293.121155 
	C640.247986,290.669556 642.093567,288.739471 645.036804,289.151276 
	C647.722107,289.526978 648.950989,291.641052 649.227783,294.099915 
	C649.917908,300.229279 653.670898,303.911560 658.780090,306.607666 
	C663.155823,308.916809 668.460693,308.140381 671.538147,304.446899 
	C674.378601,301.037933 672.069519,298.465942 669.484009,296.499146 
	C664.321533,292.571869 658.947388,288.936676 653.255615,285.775360 
	C640.381348,278.624725 635.446960,267.230988 639.653381,254.482193 
	C642.008179,247.345245 646.868713,242.729446 654.004700,240.376968 
	C664.253418,236.998367 674.411133,238.764038 684.555237,240.815369 
	C687.266907,241.363693 688.319153,243.473419 688.135803,246.068588 
	C687.796021,250.877304 687.406250,255.687744 686.828186,260.472168 
	C686.532288,262.921143 685.377319,264.990417 682.486084,265.135162 
	C679.636597,265.277863 678.499023,263.426270 677.631409,261.016022 
	C675.305542,254.555328 671.646423,252.281204 665.652710,253.243439 
	C662.910889,253.683609 661.033691,255.103134 660.332336,257.812042 
	C659.631470,260.519348 661.645142,261.743103 663.468933,262.893494 
	C669.654846,266.795502 676.088745,270.336487 682.063965,274.533600 
	C693.596558,282.634369 696.608398,294.910461 690.531372,308.297119 
M655.712891,309.145966 
	C649.057495,305.604401 645.955750,299.615479 644.676453,292.009186 
	C641.636841,294.385101 641.680603,297.360504 641.298340,300.013153 
	C640.101196,308.320801 642.021179,311.149048 649.926514,313.748077 
	C656.564453,315.930420 663.342407,316.262543 670.175781,315.366211 
	C680.319885,314.035553 686.969910,307.903198 689.167786,298.176483 
	C691.247925,288.970856 688.161011,282.093842 679.106262,276.317902 
	C672.788818,272.288055 666.253906,268.595856 659.983887,264.496307 
	C656.784119,262.404175 653.452393,259.853302 654.007324,255.401932 
	C654.585388,250.764526 658.231506,248.388092 662.108337,246.624588 
	C664.762573,245.417236 667.620728,245.706650 670.443848,246.366013 
	C675.494446,247.545624 679.424561,250.234604 682.064392,255.111816 
	C682.967468,252.037964 683.390747,249.297867 683.647888,246.542267 
	C683.799683,244.914398 683.292175,243.516876 681.348999,243.308365 
	C672.965027,242.408752 664.705444,240.164246 656.131897,242.808243 
	C644.930481,246.262665 639.417297,257.043793 643.547485,268.034882 
	C645.558289,273.385803 649.557983,276.675201 654.135986,279.566925 
	C660.328674,283.478577 666.697571,287.153839 672.612793,291.451019 
	C679.644714,296.559387 678.330139,305.851746 670.457581,309.568970 
	C665.710083,311.810638 661.089966,311.311615 655.712891,309.145966 
z"/>
<path fill="#000000" opacity="1.000000" stroke="none" 
	d="
M609.217163,385.739258 
	C604.569458,389.147888 599.954102,392.601868 595.265503,395.953278 
	C589.890259,399.795502 584.130859,402.946838 577.449219,405.061096 
	C576.993469,404.914093 576.850159,404.581909 576.850159,404.581909 
	C579.923584,402.664917 580.997498,400.044922 581.034180,396.301178 
	C581.122620,387.278717 585.652344,380.155151 592.062622,374.182922 
	C595.051147,371.398590 596.941162,372.063965 597.818726,376.171783 
	C598.831360,380.911804 598.175598,385.705261 597.158264,391.190857 
	C601.071899,389.892639 600.733215,387.665588 600.229919,385.183380 
	C598.518494,376.742249 600.301147,369.002075 605.203735,361.971954 
	C606.216614,360.519562 606.990295,358.407440 609.160217,358.614502 
	C611.576172,358.844971 611.887329,361.252563 612.654846,363.017365 
	C614.264282,366.718262 614.301941,370.738129 614.607971,375.322205 
	C617.379272,373.314362 616.357422,371.323914 615.834778,369.392120 
	C613.564819,361.001160 614.095337,352.931122 618.674988,345.347504 
	C619.435913,344.087494 619.998718,342.450897 621.759521,342.413910 
	C623.744629,342.372192 624.557495,344.028412 625.259338,345.532837 
	C626.297852,347.758911 627.190918,350.052765 628.455078,353.051117 
	C631.076721,344.975586 632.954041,337.208069 641.075073,333.477783 
	C636.307068,340.391418 631.017578,347.034912 632.055054,356.569000 
	C632.003235,356.991486 632.028748,356.953400 631.772034,357.175018 
	C628.235229,360.991058 627.150085,366.309448 621.431396,369.894440 
	C624.262817,360.969482 627.220215,353.048553 621.662354,345.089722 
	C618.985352,349.546326 616.178711,354.341248 617.678284,358.873444 
	C620.860657,368.491364 619.677551,376.394592 611.798157,383.339478 
	C610.823853,384.287689 610.020508,385.013458 609.217163,385.739258 
M593.525085,375.934814 
	C585.209961,383.044464 582.055237,392.379700 585.830078,398.705383 
	C592.060791,394.262482 593.879028,389.268707 593.525085,375.934814 
M609.415955,364.202667 
	C609.245911,363.450500 609.679871,362.532715 608.804749,361.973907 
	C603.087646,366.950409 600.257874,378.424561 605.246521,385.564484 
	C609.838623,379.292419 611.505798,372.455444 609.415955,364.202667 
z"/>
<path fill="#000000" opacity="1.000000" stroke="none" 
	d="
M609.065857,386.043030 
	C610.020508,385.013458 610.823853,384.287689 612.083008,383.149658 
	C620.180664,375.008362 627.930542,367.361023 632.028748,356.953400 
	C632.028748,356.953400 632.003235,356.991486 631.990234,357.010712 
	C643.826904,351.609344 645.387085,340.874756 646.000183,329.688446 
	C649.273254,330.051056 650.003052,331.152893 649.769836,335.251190 
	C649.253906,344.316345 645.658447,352.229889 638.073608,360.033051 
	C641.761169,358.656097 644.647705,358.748505 647.537598,358.917694 
	C651.976440,359.177673 652.986389,360.778625 650.592712,364.536346 
	C646.026306,371.705048 639.731384,376.613403 631.161499,378.131409 
	C628.284546,378.640991 625.379761,378.994019 622.559143,380.271515 
	C623.436035,380.587585 624.312927,380.903656 626.454651,381.675690 
	C619.270874,382.863098 614.094421,385.948090 608.649292,389.256378 
	C608.330811,389.376923 607.982727,389.020752 607.806519,388.842407 
	C608.058350,387.891663 608.486450,387.119232 609.065857,386.043030 
M645.743347,360.234039 
	C637.164551,361.261780 630.394775,365.290100 625.012268,372.368439 
	C634.729187,373.704437 643.482605,369.302124 647.423523,361.343811 
	C647.844482,360.493774 647.057129,360.279602 645.743347,360.234039 
z"/>
<path fill="#000000" opacity="1.000000" stroke="none" 
	d="
M568.028687,150.013519 
	C565.766235,147.147888 567.365234,146.414474 569.987915,146.981812 
	C574.103027,147.871964 578.198303,148.213882 582.370056,147.759979 
	C586.961304,147.260406 590.963196,145.396957 594.590027,142.548553 
	C588.726929,138.007126 577.941284,137.582764 572.676575,141.656174 
	C563.482056,148.770126 554.477295,145.190262 545.199402,143.443192 
	C544.714111,143.351807 544.222534,143.225082 543.775940,143.022293 
	C543.499390,142.896698 543.302185,142.596222 542.765381,141.493607 
	C553.910950,142.504715 562.563293,136.757874 571.418152,130.276138 
	C572.560303,135.459061 569.684692,137.506622 568.055847,140.460434 
	C570.424133,140.596710 572.029297,139.281998 573.801575,138.621613 
	C581.615845,135.709717 589.132996,136.298279 596.340698,140.487152 
	C599.493286,142.319351 599.538696,144.309052 596.740662,146.689713 
	C592.712158,150.117233 587.697998,151.528625 583.062988,153.715256 
	C581.543762,154.431976 580.143677,153.578461 578.752197,153.077591 
	C575.474976,151.897949 572.311401,150.351074 568.372498,149.998367 
	C567.972229,149.968994 568.008911,149.999924 568.028687,150.013519 
z"/>
<path fill="#000000" opacity="1.000000" stroke="none" 
	d="
M600.024292,166.009705 
	C598.180664,162.955261 594.192566,162.259521 591.619263,158.100098 
	C600.556885,159.998642 608.838562,163.189133 617.170776,157.945892 
	C610.333191,152.758942 602.888733,151.743271 594.440186,153.100967 
	C597.340576,150.560776 601.596497,149.825394 606.693542,150.897659 
	C611.300415,151.866837 615.478455,153.940384 619.359314,156.572647 
	C621.989258,158.356445 622.224304,160.404724 619.897949,162.736328 
	C612.673828,169.976486 609.727295,170.525253 600.337036,166.074921 
	C599.984009,165.972382 600.008972,165.999344 600.024292,166.009705 
z"/>
<path fill="#000000" opacity="1.000000" stroke="none" 
	d="
M577.076477,405.074829 
	C573.472229,407.811279 569.525513,409.703491 563.361145,410.370209 
	C570.605774,403.270874 576.417358,396.725494 575.655640,386.608795 
	C568.051575,391.219879 562.857361,397.122406 562.132690,406.203369 
	C561.940613,408.610291 562.268921,411.306061 558.521790,412.051605 
	C557.012390,407.893951 559.293884,404.634918 560.441223,401.162140 
	C562.749268,394.175781 567.228210,389.073700 573.554321,385.459839 
	C578.042542,382.895905 579.794556,383.844086 580.064880,389.118835 
	C580.336670,394.423492 577.550110,399.044098 576.752075,404.335968 
	C576.850159,404.581909 576.993469,404.914093 577.076477,405.074829 
z"/>
<path fill="#000000" opacity="1.000000" stroke="none" 
	d="
M553.914368,392.904480 
	C555.185364,391.763062 556.615784,390.553009 558.327026,391.579987 
	C559.895935,392.521515 559.957581,394.352509 559.848938,396.062988 
	C559.441650,402.470917 556.045776,407.749176 552.879761,412.946899 
	C551.301941,415.537415 547.470276,415.067383 544.620605,415.822968 
	C542.708252,416.329987 540.692322,416.446503 538.352051,416.863922 
	C537.981323,416.990112 538.001160,417.004547 538.009155,417.014160 
	C538.246643,413.948761 540.592407,413.285278 542.963806,412.312561 
	C548.229431,410.152679 549.319641,407.468903 546.961670,402.849762 
	C549.735901,400.493530 551.550903,397.092499 554.789612,395.022430 
	C555.867615,394.333344 556.256714,393.567444 554.268860,393.075867 
	C553.988831,392.995270 553.914368,392.904480 553.914368,392.904480 
z"/>
<path fill="#000000" opacity="1.000000" stroke="none" 
	d="
M527.716125,140.177643 
	C524.015442,138.953918 520.157898,139.144028 516.871948,136.057190 
	C523.696411,132.283691 529.741089,128.104660 533.888794,121.785416 
	C536.922180,124.336449 536.942261,126.119690 533.583679,129.780853 
	C531.494263,132.058517 529.044128,134.005341 526.869995,135.996185 
	C527.786377,138.832489 530.971680,137.788635 532.167236,139.990097 
	C530.860291,141.408707 529.399536,140.051270 527.716125,140.177643 
z"/>
<path fill="#000000" opacity="1.000000" stroke="none" 
	d="
M554.025269,393.041321 
	C551.081665,395.750122 547.365173,397.377502 544.463074,400.211090 
	C540.613098,403.970123 538.375671,408.460144 537.163879,413.599030 
	C536.660400,415.733856 535.966248,417.793701 532.375183,417.057953 
	C537.002380,406.655853 539.867004,395.417694 553.534668,392.915222 
	C553.914368,392.904480 553.988831,392.995270 554.025269,393.041321 
z"/>
<path fill="#000000" opacity="1.000000" stroke="none" 
	d="
M635.837036,175.194092 
	C630.261353,171.942734 624.933228,168.302200 618.429016,167.047684 
	C625.639893,166.040955 631.143372,169.149109 636.057983,174.444519 
	C636.251282,174.715088 635.974487,175.033905 635.837036,175.194092 
z"/>
<path fill="#000000" opacity="1.000000" stroke="none" 
	d="
M427.997864,402.873871 
	C424.415497,405.940369 420.970367,401.769623 417.319061,402.690430 
	C420.799347,399.661346 424.350159,401.703125 427.997864,402.873871 
z"/>
<path fill="#000000" opacity="1.000000" stroke="none" 
	d="
M446.412445,288.242615 
	C444.185852,288.027618 441.620422,288.127655 442.580841,285.381653 
	C445.566254,276.845612 449.561859,268.751373 454.288025,259.387787 
	C459.420258,269.164307 463.332458,277.911896 467.542694,288.253082 
	C459.886627,288.253082 453.372223,288.253082 446.412445,288.242615 
M457.085510,280.685547 
	C456.288483,279.336487 455.403564,277.993927 453.638275,279.296539 
	C452.323242,280.266876 451.969574,281.755859 452.434479,283.288422 
	C452.844177,284.638885 454.084778,284.768524 455.272614,284.714081 
	C457.594238,284.607635 457.954559,283.233551 457.085510,280.685547 
z"/>
</svg>