<svg version="1.1" id="Layer_1" xmlns="http://www.w3.org/2000/svg" xmlns:xlink="http://www.w3.org/1999/xlink" x="0px" y="0px"
	 width="100%" viewBox="0 0 1024 544" enable-background="new 0 0 1024 544" xml:space="preserve">
<path fill="#000000" opacity="1.000000" stroke="none" 
	d="
M400.129883,52.013435 
	C440.569305,31.761766 483.237640,23.368706 527.773071,25.930275 
	C587.107971,29.343079 638.949280,51.663364 683.116150,91.357178 
	C721.478210,125.834129 747.699585,168.132568 759.433838,218.351547 
	C779.251587,303.165344 761.230286,379.640686 704.587646,446.101868 
	C671.895569,484.460754 630.945801,510.970062 582.174927,524.369995 
	C516.613281,542.383240 453.448639,535.587646 393.434753,503.467102 
	C342.999512,476.473236 305.790710,436.668945 281.714020,384.761475 
	C269.125916,357.622528 261.730896,329.093781 259.558960,299.186188 
	C255.729599,246.455597 267.033234,197.182190 293.613464,151.599289 
	C318.416229,109.064522 353.289154,76.867653 396.712799,53.826752 
	C397.742432,53.280426 398.767792,52.725971 400.129883,52.013435 
M355.948578,406.577606 
	C367.213013,420.991302 380.644928,433.063293 395.947021,443.005768 
	C404.419220,448.510559 413.032562,451.265137 422.987762,445.288788 
	C428.613037,441.911774 435.613647,441.277618 441.561310,445.302765 
	C445.135132,447.721283 448.942200,449.887360 452.247894,452.621643 
	C456.128754,455.831726 461.337311,457.911407 463.000549,463.293610 
	C464.369232,467.722778 467.371674,470.354034 471.614136,471.549011 
	C476.773651,473.002319 481.874573,474.304596 485.506165,478.784698 
	C486.790344,480.368958 489.061127,480.472168 491.068787,480.638214 
	C501.511261,481.501831 511.944214,482.150909 522.452881,481.767090 
	C525.646423,481.650421 529.506409,480.011566 532.046631,482.044769 
	C534.731689,484.193848 537.709351,484.869934 540.994751,486.821320 
	C539.544006,483.655121 536.116943,484.081604 535.002625,481.597656 
	C536.602051,480.165192 538.502319,480.102325 540.262085,479.861328 
	C558.170898,477.408417 575.520386,472.637085 592.099243,465.653107 
	C614.321655,456.291718 634.447632,443.493652 651.868591,426.559143 
	C667.520325,411.344391 680.644592,394.288605 690.852234,375.027130 
	C697.328491,362.806580 703.082581,350.265900 706.581360,336.780914 
	C707.249023,334.207550 707.437317,331.027405 710.381470,329.538757 
	C714.349243,327.532501 716.345764,323.666595 719.721802,320.428284 
	C715.852844,320.760284 714.472778,324.352997 711.155518,324.741882 
	C714.191711,320.015472 719.334351,316.923767 721.199341,311.517883 
	C720.182434,310.392548 718.790771,312.447906 717.895142,310.591064 
	C719.249939,308.211334 720.682861,305.694305 722.383606,302.706879 
	C718.623169,303.844574 717.699646,307.782959 714.529724,308.263550 
	C713.308289,307.213165 713.651733,306.200897 713.710999,305.220856 
	C714.119202,298.467072 714.836975,291.712860 714.849121,284.957703 
	C714.896667,258.610382 710.247498,233.147720 701.274719,208.289276 
	C688.097473,171.782730 665.603943,142.130432 635.202271,118.738388 
	C614.108765,102.508377 590.205017,91.179688 564.089600,84.812805 
	C525.976807,75.520996 488.254211,76.527596 450.833923,88.242439 
	C422.186523,97.210838 397.154663,112.680779 375.427979,132.983719 
	C350.578674,156.204681 332.501068,184.281250 322.434143,216.922272 
	C312.095978,250.442749 308.666901,284.442444 315.710693,319.384644 
	C322.197540,351.563995 335.228455,380.358276 355.948578,406.577606 
M470.789490,515.854492 
	C461.546844,514.459717 452.562805,511.993286 443.629608,509.312286 
	C434.681549,506.626740 425.965881,503.301636 417.378082,499.648773 
	C409.085205,496.121307 401.369629,491.238220 392.688477,489.267487 
	C479.482239,535.528015 565.011536,531.745605 648.923340,481.062286 
	C650.249512,483.680847 646.812134,484.987213 648.499878,487.409576 
	C651.862793,488.034546 654.091309,485.388702 656.524902,483.743317 
	C673.044006,472.574646 687.710876,459.237671 700.892578,444.344635 
	C716.784485,426.389618 729.809937,406.513733 739.154846,384.345337 
	C740.237122,381.777954 741.357239,379.276306 739.971619,376.214325 
	C739.267334,374.657837 739.080078,371.789093 742.054932,371.667877 
	C745.251709,371.537567 745.113403,369.429749 745.642944,367.303986 
	C746.296570,364.680023 744.029236,362.618958 744.350159,360.809753 
	C745.394958,358.404572 747.575684,359.760651 748.611145,358.148041 
	C748.956726,356.071564 748.945801,353.774628 749.469238,351.479706 
	C751.146240,344.127869 755.132996,337.647339 756.966675,330.361938 
	C759.698853,319.506470 761.668762,308.522003 762.277527,297.364777 
	C763.304565,278.542053 763.140991,259.742676 759.642456,241.112930 
	C759.141052,238.443176 757.905212,236.337570 755.270081,235.530655 
	C752.990051,234.832474 750.941467,235.508377 751.443542,238.340607 
	C752.840271,246.219223 752.047913,254.129623 752.325867,262.013916 
	C753.632751,299.073914 749.620361,335.241486 735.188904,369.664642 
	C711.552246,426.044983 672.150024,467.986542 617.430420,495.115601 
	C571.249268,518.011475 522.506897,524.887512 470.789490,515.854492 
M711.371521,140.167633 
	C715.798645,146.627930 720.035950,153.200073 723.852295,160.051392 
	C729.780273,170.693451 734.939697,181.684540 739.383179,193.020233 
	C739.979797,194.542191 740.365784,196.447266 742.665039,196.018219 
	C745.123657,195.559418 745.031189,193.536148 744.981384,191.692902 
	C744.950195,190.539398 744.852539,189.335754 744.493896,188.250717 
	C737.628540,167.478729 727.253540,148.625748 713.240234,131.826630 
	C709.626892,127.494911 704.892944,123.966110 701.879272,119.291351 
	C693.636169,106.504807 682.826599,96.245155 671.246216,86.739265 
	C659.644958,77.216194 647.051270,69.017097 634.125549,61.430161 
	C623.204529,55.019962 611.758179,49.556374 599.608765,45.761654 
	C597.274048,45.032436 594.616394,44.719166 593.705017,47.622662 
	C592.795532,50.520203 595.762146,50.565605 597.423401,51.247105 
	C625.523926,62.775040 651.483276,77.724403 674.192932,98.143097 
	C681.144165,104.393105 687.490295,111.222404 694.351074,117.525726 
	C698.018921,120.895546 702.221680,123.676376 704.289673,128.456924 
	C706.021973,132.461594 708.482971,136.022934 711.371521,140.167633 
M391.494781,62.007515 
	C386.724884,64.551323 383.017761,68.494972 377.967743,70.920738 
	C366.682983,76.341354 356.674103,83.907188 347.834869,92.881912 
	C345.866821,94.880135 345.494690,98.312210 342.612762,99.395638 
	C338.120331,101.084526 335.267029,104.660637 332.703583,108.226936 
	C330.171173,111.750038 327.314484,115.355217 326.863647,120.216339 
	C330.422974,117.943176 333.536652,115.336258 336.304504,112.403023 
	C339.812744,108.685219 342.428131,103.816483 346.504120,101.001259 
	C358.301422,92.853058 369.630096,84.249023 379.838837,74.147095 
	C381.750488,72.255455 384.006042,70.330994 386.827148,69.581535 
	C395.701141,67.224037 402.963745,61.529381 411.179626,57.804272 
	C412.699921,57.114975 414.238342,55.765324 413.246704,53.864090 
	C412.180176,51.819332 410.204102,52.141613 408.433472,53.047611 
	C402.959290,55.848629 397.510681,58.699638 391.494781,62.007515 
M455.806580,41.088371 
	C458.756927,41.757061 461.694763,42.011906 464.695190,41.265358 
	C468.391113,40.345757 472.082733,39.232635 475.845215,38.791031 
	C485.411621,37.668213 495.018768,36.896336 504.604431,35.932148 
	C507.471588,35.643742 510.542389,35.660324 512.296143,32.624340 
	C504.828522,26.865606 461.423920,32.386158 452.490295,40.064270 
	C453.013947,41.306595 454.189789,40.787983 455.806580,41.088371 
M442.197418,41.290138 
	C440.835571,41.776154 439.212708,41.919922 438.873993,43.771618 
	C443.265167,46.685673 447.633606,45.591072 449.258972,41.116924 
	C447.137390,40.137432 445.033905,41.287014 442.197418,41.290138 
M702.793457,402.755035 
	C704.804138,402.873138 706.517761,402.353180 706.937012,400.137329 
	C707.264465,398.406830 705.863953,397.857391 704.528503,397.588379 
	C702.698181,397.219666 701.207581,398.052338 700.303955,399.548920 
	C699.140625,401.475494 700.566589,402.178101 702.793457,402.755035 
M682.794067,428.775848 
	C685.013550,428.976807 686.699463,428.299408 687.107483,425.886139 
	C687.298889,424.753876 686.480225,424.060333 685.517273,423.717194 
	C683.750366,423.087494 682.273193,423.823853 681.155029,425.107483 
	C679.829407,426.629333 680.594482,427.771393 682.794067,428.775848 
M733.576660,328.741058 
	C735.712524,328.689178 737.098633,327.681885 737.035950,325.474640 
	C736.998657,324.162689 735.856812,323.548553 734.598206,323.469879 
	C732.981079,323.368805 731.605469,324.045746 730.898010,325.459625 
	C729.919434,327.415375 731.513428,328.021790 733.576660,328.741058 
M739.196106,311.524963 
	C739.985718,310.105438 740.358765,308.626038 738.662476,307.685425 
	C737.237915,306.895538 735.766785,307.294525 734.571472,308.401367 
	C733.800720,309.115112 733.268433,310.062988 733.963867,311.014343 
	C735.187805,312.688751 736.796143,313.182129 739.196106,311.524963 
M715.507507,371.747284 
	C715.749207,375.035278 717.885803,374.930389 720.089966,374.082581 
	C721.710938,373.459106 722.432739,371.805542 721.242493,370.468903 
	C719.370850,368.366913 717.425354,369.268890 715.507507,371.747284 
M711.010132,383.843536 
	C709.419739,384.525787 707.848328,385.309174 708.664429,387.450226 
	C709.133789,388.681580 710.368103,388.945404 711.579773,388.878052 
	C713.009338,388.798523 714.230286,388.204803 714.532959,386.703552 
	C714.983093,384.471222 713.587158,383.789948 711.010132,383.843536 
M672.121338,435.511932 
	C670.511902,436.328827 669.166504,437.384094 670.481262,439.315247 
	C671.255493,440.452362 672.613037,440.899567 674.007141,440.425934 
	C675.427307,439.943359 676.093140,438.718201 676.039612,437.340240 
	C675.956970,435.212830 674.288452,435.329529 672.121338,435.511932 
M741.682312,293.560059 
	C740.711426,290.446075 738.666504,290.900757 736.619995,292.207977 
	C735.386169,292.996124 734.754395,294.512787 736.055298,295.585052 
	C738.289917,297.427032 740.342529,297.072968 741.682312,293.560059 
M693.615906,416.439148 
	C696.259338,416.064728 697.242859,414.547791 696.909851,411.989258 
	C694.510620,410.783661 692.401428,410.869324 691.055725,413.052612 
	C689.918274,414.897980 691.597961,415.650818 693.615906,416.439148 
M741.090210,262.590271 
	C742.228394,260.289276 741.829102,258.564087 739.003723,258.556000 
	C737.359802,258.551270 735.358948,259.524261 735.857483,261.509155 
	C736.448914,263.863464 738.460876,264.204865 741.090210,262.590271 
M742.118225,276.174438 
	C739.862915,274.477478 737.805542,274.694855 736.295898,277.085693 
	C735.525391,278.305786 736.248840,279.408112 737.590515,279.663422 
	C739.957275,280.113770 742.375610,280.373505 742.118225,276.174438 
M606.354736,481.082794 
	C604.962036,481.853363 603.728699,482.794037 604.828552,484.546906 
	C605.636963,485.835388 607.036194,485.905670 608.360718,485.452148 
	C609.694031,484.995697 610.789124,484.055573 610.466248,482.545074 
	C610.076111,480.719788 608.593506,480.486084 606.354736,481.082794 
M695.961182,146.425064 
	C696.504333,149.486954 698.354370,149.768524 700.684692,148.467392 
	C701.881775,147.798981 703.020752,146.425827 701.773499,145.224182 
	C699.919678,143.438187 697.847595,143.831711 695.961182,146.425064 
M729.027039,344.521057 
	C731.721252,344.513733 733.260620,343.183716 732.457642,340.529968 
	C731.916016,338.740021 729.938354,338.969055 728.658691,339.745392 
	C726.612122,340.987061 725.897217,342.644928 729.027039,344.521057 
M724.138550,359.424408 
	C726.288147,359.909088 727.654968,359.100464 728.038269,356.916534 
	C728.235413,355.793549 727.501953,355.055420 726.549622,354.659363 
	C724.994141,354.012451 723.576233,354.542175 722.575867,355.715851 
	C721.318970,357.190643 721.872681,358.405731 724.138550,359.424408 
M591.924927,487.278839 
	C590.525024,487.618164 589.253845,488.255402 589.768433,489.929840 
	C590.205322,491.351196 591.572571,491.763733 592.994446,491.673401 
	C594.278137,491.591797 595.267151,490.934387 595.457397,489.641571 
	C595.776001,487.475800 594.206116,487.286224 591.924927,487.278839 
M661.513000,450.856140 
	C663.151184,450.757263 664.497620,450.185303 664.507568,448.313232 
	C664.515076,446.904572 663.408142,446.383026 662.161560,446.281647 
	C660.796631,446.170624 659.372559,446.332886 658.746582,447.706299 
	C657.868591,449.632721 659.234436,450.337433 661.513000,450.856140 
M514.391846,506.072479 
	C515.861511,504.859558 515.927124,503.579590 514.473389,502.339752 
	C513.275696,501.318298 511.979706,501.595245 510.798401,502.378113 
	C509.952759,502.938507 509.154327,503.747833 509.630859,504.848755 
	C510.443237,506.725586 512.039612,506.885803 514.391846,506.072479 
M542.960571,502.803223 
	C544.533813,504.609741 546.162170,505.210052 547.807861,502.922333 
	C548.577820,501.851868 548.727417,500.499664 547.458557,499.914124 
	C545.142700,498.845428 543.245605,499.307190 542.960571,502.803223 
M637.811035,465.679871 
	C635.520447,464.923615 633.450500,465.109039 632.734131,467.751923 
	C632.373108,469.083923 633.707703,469.777496 634.914368,469.816071 
	C637.342102,469.893738 639.276001,469.322693 637.811035,465.679871 
M620.472534,473.756866 
	C619.216614,474.629211 617.863525,475.575012 619.318359,477.222443 
	C620.240295,478.266418 621.586426,478.472565 622.913940,477.876678 
	C624.037659,477.372253 624.875854,476.527863 624.571167,475.220276 
	C624.133362,473.341309 622.637390,473.291290 620.472534,473.756866 
M678.876648,118.818535 
	C677.384033,119.185013 675.857239,119.664223 675.979797,121.560493 
	C676.061707,122.827415 677.096863,123.515686 678.341125,123.710716 
	C679.800659,123.939484 681.011780,123.479233 681.500000,122.021545 
	C682.090637,120.257751 681.298218,119.184502 678.876648,118.818535 
M687.412292,134.970535 
	C688.956116,137.239014 690.620483,137.045044 692.127014,135.028061 
	C693.062195,133.776062 692.839966,132.339417 691.325378,131.760483 
	C689.055786,130.892929 687.447144,131.591385 687.412292,134.970535 
M496.391205,501.385040 
	C494.411682,501.497223 492.413544,501.975433 493.082581,504.469330 
	C493.553192,506.223480 495.554779,506.190948 496.905334,505.521973 
	C499.068451,504.450500 499.400574,502.936951 496.391205,501.385040 
M665.371338,111.591820 
	C667.562500,112.075134 669.460266,111.825897 669.524902,109.078064 
	C669.565125,107.370338 668.080139,106.950905 666.710632,107.243492 
	C664.494873,107.716896 662.880127,108.706223 665.371338,111.591820 
M465.855774,497.325867 
	C463.873627,495.777588 462.034454,496.111633 460.865784,498.186798 
	C460.044983,499.644318 461.191528,500.892792 462.563751,501.141174 
	C464.952118,501.573486 466.352509,500.455841 465.855774,497.325867 
M655.833740,96.306595 
	C653.721069,96.022743 651.623230,96.084663 651.659607,98.888657 
	C651.679504,100.424255 653.210449,101.084534 654.599243,100.709099 
	C656.690186,100.143860 658.456970,99.136818 655.833740,96.306595 
M710.044983,160.824158 
	C711.304749,158.304871 709.856323,157.476349 707.721130,157.417938 
	C706.147888,157.374893 704.400146,158.196777 704.819336,159.920990 
	C705.449158,162.511307 707.566772,162.170471 710.044983,160.824158 
M561.489685,501.265045 
	C563.333252,500.917572 564.550171,499.945557 564.097839,497.943359 
	C563.872131,496.944427 562.792236,496.568909 561.766357,496.495514 
	C560.513306,496.405792 559.418701,496.933929 558.917419,498.002655 
	C558.040344,499.872620 559.430908,500.597839 561.489685,501.265045 
M723.643005,186.500809 
	C723.553223,184.005493 722.191223,183.375259 720.063416,184.229019 
	C718.721863,184.767303 717.785706,185.950394 718.724731,187.305054 
	C720.215759,189.456055 721.934753,189.097473 723.643005,186.500809 
M530.781494,501.687378 
	C528.641052,501.062439 526.714722,501.123047 526.430420,503.879456 
	C526.284058,505.299377 527.548035,505.821869 528.794250,505.719971 
	C530.961121,505.542816 532.204407,504.571594 530.781494,501.687378 
M651.353455,457.109375 
	C649.239441,455.534943 647.344299,455.819519 646.177673,458.149414 
	C645.554016,459.394928 646.689209,460.320099 647.850891,460.593536 
	C650.145691,461.133698 651.701599,460.452057 651.353455,457.109375 
M477.738861,500.062103 
	C476.482391,501.091949 476.155914,502.241211 477.626953,503.271637 
	C478.637421,503.979462 479.830444,503.865784 480.896362,503.218933 
	C481.806091,502.666870 482.505432,501.777924 482.086761,500.770630 
	C481.345001,498.986023 479.801331,499.237640 477.738861,500.062103 
M416.936462,485.336395 
	C418.690979,485.645599 419.942566,484.965424 420.232178,483.216614 
	C420.416809,482.101807 419.540222,481.435852 418.441498,481.237213 
	C417.264343,481.024353 416.026215,480.987091 415.219025,481.981750 
	C413.985077,483.502258 415.143768,484.342804 416.936462,485.336395 
M722.266968,295.473877 
	C722.475342,294.788635 723.500488,294.306244 722.676453,293.161072 
	C719.950989,296.084961 716.736511,298.526489 716.746094,303.129639 
	C718.481934,300.747803 720.217712,298.365997 722.266968,295.473877 
M450.362610,494.074005 
	C448.822998,491.944244 447.084930,492.297058 445.456940,493.850128 
	C444.596344,494.671112 444.936218,495.890991 445.846741,496.338440 
	C447.798431,497.297577 449.644684,497.266663 450.362610,494.074005 
M715.417603,329.449890 
	C712.923157,331.317535 709.981262,332.814880 708.917114,337.457855 
	C712.614929,334.028717 715.420044,331.427368 718.225220,328.826050 
	C718.019409,328.610138 717.813538,328.394226 717.607727,328.178345 
	C717.045471,328.501099 716.483154,328.823853 715.417603,329.449890 
M717.532715,172.468033 
	C716.979248,169.864349 715.247559,169.891281 713.421753,170.849106 
	C712.269165,171.453705 711.881165,172.808365 712.872131,173.792053 
	C714.516785,175.424561 716.122192,175.021866 717.532715,172.468033 
M710.094055,342.442505 
	C711.985046,340.705261 714.682373,339.727722 716.034119,336.050049 
	C712.210754,339.445557 707.629333,340.611267 706.231140,344.961273 
	C706.583069,345.314270 706.934998,345.667267 707.286865,346.020233 
	C708.065002,344.981262 708.843140,343.942261 710.094055,342.442505 
M734.695923,245.157471 
	C735.757324,246.981445 737.122253,247.988892 738.984863,246.253647 
	C739.899597,245.401459 740.072144,244.055573 738.976196,243.214020 
	C737.054871,241.738724 735.655823,242.645187 734.695923,245.157471 
M400.577393,476.284576 
	C401.830078,478.172668 403.435852,478.374176 405.025543,476.895020 
	C405.998566,475.989655 405.807007,474.654175 404.647919,474.006195 
	C402.757874,472.949554 401.242767,473.471741 400.577393,476.284576 
M579.577271,494.623322 
	C578.989990,492.122711 577.416626,492.078857 575.568604,493.127014 
	C574.415405,493.781006 573.956360,494.951263 575.028198,495.922577 
	C576.619202,497.364380 578.234802,497.239166 579.577271,494.623322 
M432.559570,491.358032 
	C434.107971,491.163513 434.961578,490.317932 434.603271,488.745483 
	C434.294067,487.388550 433.117401,487.194885 431.917450,487.273315 
	C430.882935,487.340881 429.919067,487.763733 429.662598,488.782837 
	C429.213959,490.565521 430.678864,490.868988 432.559570,491.358032 
M711.464783,347.083862 
	C711.718262,346.750641 712.302002,346.417908 711.496765,346.070404 
	C711.378113,346.019226 711.174988,346.109070 711.031921,346.177429 
	C707.786194,347.727509 704.893860,349.653839 702.728455,354.417053 
	C706.219055,351.490204 708.642151,349.458466 711.464783,347.083862 
M689.486633,384.056122 
	C692.183960,382.373474 694.881287,380.690796 697.578613,379.008148 
	C694.159363,379.562744 690.729675,380.068024 689.486633,384.056122 
M722.761841,279.492249 
	C722.855469,279.190460 722.968689,278.892242 723.024231,278.583618 
	C723.033997,278.529572 722.727295,278.338715 722.690918,278.367584 
	C720.100464,280.422882 718.025085,282.840332 717.754150,286.550446 
	C719.346619,284.356537 720.939087,282.162628 722.761841,279.492249 
M732.806946,230.438492 
	C734.512512,231.791748 735.877991,231.321548 736.789124,229.528732 
	C737.331421,228.461578 736.820557,227.497910 735.661072,227.317093 
	C733.781616,227.023941 732.383728,227.587158 732.806946,230.438492 
M627.129395,454.685120 
	C627.491211,454.465240 627.854614,454.247620 628.204529,454.010193 
	C628.212036,454.005096 628.083313,453.678040 627.987061,453.659088 
	C625.041931,453.079041 622.123047,452.700897 619.408325,454.696075 
	C621.931519,454.696075 624.207642,454.696075 627.129395,454.685120 
M633.156494,445.657898 
	C636.230835,445.203308 639.305115,444.748688 643.641357,444.107452 
	C639.078369,442.710114 636.081726,443.134430 633.156494,445.657898 
M630.183838,449.895569 
	C631.940857,449.556122 633.920532,450.203979 636.041626,448.827423 
	C630.436401,447.818420 629.999207,447.909363 627.044434,450.503571 
	C627.917969,450.314850 628.713135,450.143036 630.183838,449.895569 
M546.578918,484.519135 
	C547.749329,484.709686 548.568481,486.212311 550.380127,485.366180 
	C547.711304,483.590179 545.331421,481.970581 542.060303,482.446136 
	C543.373108,483.037079 544.685852,483.628052 546.578918,484.519135 
M323.288147,124.872124 
	C323.512054,124.218002 324.571899,123.692673 323.045105,122.318062 
	C322.368805,124.891548 318.779572,125.546440 319.701996,129.069702 
	C322.587067,129.113007 322.210632,126.741562 323.288147,124.872124 
M684.945312,390.494232 
	C688.274475,389.949280 690.645508,387.678772 693.445740,386.178467 
	C690.199097,386.599518 687.133118,387.344391 684.945312,390.494232 
M673.752319,414.039032 
	C669.973022,413.616730 666.776245,414.705139 664.209167,417.438660 
	C667.088135,415.706482 670.617981,415.927734 673.752319,414.039032 
M557.142151,484.086823 
	C557.582458,484.077576 558.022705,484.068359 558.463013,484.059143 
	C558.414795,483.906128 558.415466,483.682312 558.311279,483.610413 
	C555.686401,481.798615 552.951538,480.336212 548.185425,480.746674 
	C551.864075,482.108643 554.238403,482.987701 557.142151,484.086823 
M573.929688,475.475372 
	C576.819580,476.058807 579.709473,476.642212 582.599365,477.225647 
	C579.920715,475.672089 577.412109,473.375824 573.929688,475.475372 
M659.841125,427.793335 
	C660.599487,427.475159 661.833130,427.944977 662.028442,426.385651 
	C658.795898,426.293427 655.846436,426.711182 652.968018,428.744537 
	C653.556885,429.014099 653.719055,429.161255 653.842224,429.133820 
	C655.627625,428.735687 657.407837,428.314117 659.841125,427.793335 
M588.092346,473.770813 
	C589.195984,473.774567 590.134460,474.962891 591.366333,474.239349 
	C586.865662,471.401062 585.623474,471.198059 582.197937,472.668579 
	C583.873169,472.990479 585.638733,473.329773 588.092346,473.770813 
M600.848022,465.368530 
	C599.845764,465.605652 598.498169,464.844238 597.861267,466.426910 
	C600.759094,466.738281 603.574890,467.040833 607.060181,467.415344 
	C605.040833,465.720490 603.306030,465.493256 600.848022,465.368530 
M609.356323,461.508728 
	C607.764709,461.326935 606.385559,461.666199 605.381287,463.096954 
	C608.332336,461.967133 611.259521,464.157715 615.619080,463.169220 
	C612.802368,462.413208 611.413208,462.040344 609.356323,461.508728 
z"/>
<path fill="#000000" opacity="1.000000" stroke="none" 
	d="
M364.445618,291.842896 
	C364.273773,295.761261 364.230408,299.258179 364.120972,302.753052 
	C364.012817,306.206207 364.093231,309.270721 368.340271,310.673065 
	C370.838837,311.498077 371.119568,314.188690 370.739532,316.663025 
	C370.320282,319.392395 368.556610,320.830109 365.940338,320.874207 
	C356.612549,321.031342 347.281738,321.133881 337.953461,321.065704 
	C334.832764,321.042908 333.169067,318.952118 332.838013,315.929352 
	C332.536865,313.179230 333.300507,310.746979 336.282196,310.112122 
	C339.536469,309.419281 339.949341,307.331360 339.932404,304.584106 
	C339.836884,289.086182 339.784180,273.587799 339.785065,258.089600 
	C339.785217,255.017654 338.915924,252.687439 336.108459,251.003784 
	C333.296295,249.317276 331.879974,246.534622 332.871796,243.300491 
	C333.909576,239.916550 337.117523,239.896271 339.942688,239.884857 
	C347.774384,239.853195 355.608704,239.895615 363.437622,240.087845 
	C366.193939,240.155533 369.586700,239.898941 370.679535,243.236954 
	C371.704132,246.366455 370.044891,248.896271 367.653961,251.118683 
	C364.440826,254.105469 365.055298,263.402069 368.451050,266.606842 
	C372.582458,270.505920 378.877808,270.530762 382.832458,266.663513 
	C386.264587,263.307281 386.295776,254.933273 382.855438,251.558228 
	C382.026337,250.744858 380.946472,250.163757 380.207581,249.285889 
	C376.883942,245.337280 378.470520,240.584442 383.595642,240.204788 
	C393.396027,239.478790 403.292969,239.069763 413.036072,240.290192 
	C417.174408,240.808578 420.943756,239.804321 424.890686,239.824692 
	C435.055573,239.877136 445.220795,239.863754 455.385895,239.874039 
	C460.047089,239.878754 464.678436,239.904160 469.317261,238.989685 
	C474.386475,237.990356 476.848389,239.823105 476.848541,244.900284 
	C476.848816,252.463974 478.285309,260.224701 474.032440,267.372467 
	C472.327667,270.237671 474.452850,273.592377 473.973480,276.726379 
	C473.495148,279.853241 473.012329,282.979523 472.550995,286.108917 
	C472.179474,288.629059 472.906860,290.160370 475.759369,290.658997 
	C482.161743,291.778168 482.937378,293.234100 481.681580,299.790039 
	C481.146851,302.581848 479.506195,305.392487 481.020081,308.352112 
	C484.025269,308.574219 484.657227,306.391083 485.332001,304.657288 
	C488.703308,295.995056 493.539062,287.853180 494.914398,278.476318 
	C495.431519,274.950348 498.078094,272.677368 499.649933,269.779663 
	C504.045013,261.677155 506.073975,252.626953 510.031555,244.364151 
	C511.410278,241.485641 511.793976,237.436768 516.070862,237.254028 
	C520.151672,237.079651 521.907776,240.404572 524.015381,243.259201 
	C527.031982,247.345047 529.117981,251.471405 529.587769,256.798248 
	C530.020569,261.705261 532.833313,266.187378 535.394470,270.491730 
	C536.769104,272.802002 539.037598,273.556366 541.631592,274.108551 
	C549.113525,275.701294 550.386963,278.253601 546.998535,284.867859 
	C544.849792,289.062317 544.551208,293.042328 546.770813,297.257111 
	C548.321838,300.202148 549.577576,303.301788 551.102051,306.261871 
	C552.820801,309.599091 555.883362,310.268097 559.218079,309.690460 
	C562.578430,309.108368 562.480530,306.082794 562.466736,303.729706 
	C562.425110,296.614197 562.773804,289.457977 559.510803,282.699158 
	C557.555420,278.648865 557.510071,274.606445 560.519348,270.500671 
	C564.597839,264.936066 562.849121,254.311188 557.636414,250.050140 
	C555.317139,248.154266 555.419250,245.678024 555.820251,243.200943 
	C556.220825,240.726990 558.377197,240.155899 560.391174,240.152954 
	C575.208069,240.131348 590.125000,238.594574 604.813416,240.973740 
	C626.276184,244.450195 636.206238,260.531708 635.868591,281.123169 
	C635.583923,298.483795 628.127563,311.617340 611.200500,318.021667 
	C605.073547,320.339813 598.520142,320.990326 592.032654,321.041046 
	C571.203369,321.203979 550.371948,321.104156 529.541382,321.086945 
	C526.697632,321.084595 523.601074,321.260071 522.049255,318.247925 
	C520.502380,315.245361 521.372986,312.615387 523.729553,310.117218 
	C525.811035,307.910706 523.764343,305.745972 522.748108,303.769470 
	C521.364441,301.078430 518.774780,300.662415 516.269409,301.439514 
	C512.626587,302.569366 509.075012,304.049530 505.591888,305.618683 
	C503.341766,306.632263 503.789307,308.209839 504.917023,310.128784 
	C508.311035,315.904053 505.299835,321.255615 498.677826,321.263153 
	C474.544128,321.290710 450.375336,321.954376 426.298615,320.772034 
	C419.375305,320.432037 412.746063,321.351379 405.980408,321.306976 
	C399.315002,321.263214 392.649384,321.235413 385.984436,321.153412 
	C382.801178,321.114227 379.917938,320.430328 379.046082,316.761566 
	C378.226562,313.312958 379.522552,310.926941 382.858521,309.649475 
	C385.004486,308.827698 385.845398,307.147675 385.854126,304.937256 
	C385.868591,301.271820 385.867432,297.605682 385.942108,293.941254 
	C386.017792,290.226593 384.165131,288.328949 380.544312,288.222900 
	C376.715210,288.110779 372.881256,288.143372 369.049469,288.149658 
	C366.784058,288.153351 365.289093,289.287018 364.445618,291.842896 
M600.463440,312.090240 
	C602.211060,310.245270 604.094238,308.240112 606.876099,309.198151 
	C615.366760,312.122284 620.106750,306.731964 624.329346,301.107666 
	C629.832581,293.777496 631.304688,285.222015 631.043762,276.090240 
	C630.539429,258.437103 622.179871,247.461945 604.773193,244.218384 
	C591.307068,241.709137 577.572327,243.318298 563.952148,243.461197 
	C563.759277,243.463226 563.571045,243.915527 563.217773,244.364853 
	C566.840149,247.215378 567.352295,251.137451 567.276001,255.508881 
	C567.040771,268.991089 567.091370,282.478119 566.998901,295.963074 
	C566.959900,301.657410 567.860535,307.560059 563.231079,312.966248 
	C573.415588,313.741180 583.204529,313.734497 592.993408,313.746002 
	C595.340942,313.748779 597.661499,313.663544 600.463440,312.090240 
M355.304962,243.144394 
	C351.128876,243.495972 346.798157,242.366257 342.301514,244.216232 
	C345.024933,249.185883 344.241333,254.222855 344.244476,259.172211 
	C344.252106,271.170227 344.254059,283.168488 344.172668,295.166107 
	C344.133057,301.008789 345.344269,307.063751 340.832611,312.529816 
	C348.322968,312.985016 355.007477,313.712616 361.728851,311.717163 
	C359.165741,308.721008 358.534363,305.226715 358.623383,301.441345 
	C358.748718,296.111664 358.644165,290.776978 358.689117,285.444885 
	C358.752350,277.942291 361.303619,275.580994 368.607239,277.367279 
	C374.046021,278.697418 379.435425,278.989655 384.940826,278.937927 
	C388.894287,278.900787 391.123871,280.170288 390.524872,284.934906 
	C389.926208,289.697296 390.228912,294.580658 390.246979,299.410614 
	C390.263794,303.899323 390.449615,308.392517 386.962585,312.236053 
	C394.196228,312.506531 400.926544,313.695496 408.233429,311.887390 
	C403.083405,306.873901 403.608459,300.550995 403.999817,294.455292 
	C405.083771,277.571411 401.323425,260.415405 406.895996,243.395676 
	C400.505707,243.216187 394.216522,242.917450 387.577850,243.580109 
	C388.656097,247.175720 390.900726,249.117355 390.914185,251.919861 
	C390.946136,258.581726 390.965271,265.243805 390.950989,271.905701 
	C390.945770,274.326691 389.536133,275.741211 387.239471,275.747345 
	C378.767761,275.770020 370.295532,275.623657 361.823517,275.539917 
	C359.833923,275.520264 358.546448,274.600769 358.723358,272.528870 
	C359.537537,262.994995 355.913635,252.963745 362.029907,244.005066 
	C360.185669,242.442139 358.108978,243.403061 355.304962,243.144394 
M526.747253,261.697754 
	C523.659790,254.994919 520.572327,248.292068 516.946411,240.420334 
	C505.166870,264.874756 496.920990,289.291382 485.331818,312.475922 
	C489.740875,313.014282 492.870239,312.424255 494.602905,307.384857 
	C497.555237,298.797974 500.404663,291.128632 513.216187,292.808807 
	C524.734192,294.319397 524.869385,292.622803 529.093567,303.437134 
	C530.663025,307.455170 530.458557,310.714874 526.667603,312.934753 
	C535.670593,315.010925 544.512329,311.911926 553.496338,312.935486 
	C549.214233,310.491547 546.907715,306.704620 545.038452,302.513031 
	C539.068176,289.125977 533.052734,275.759064 526.747253,261.697754 
M471.575653,244.196899 
	C471.201721,242.470261 469.919983,242.267380 468.503601,242.458923 
	C456.392731,244.096786 444.220245,242.796066 432.086914,243.269928 
	C430.372284,243.336884 428.411011,242.562088 426.815674,244.433258 
	C428.651764,247.333923 430.361603,250.147720 430.320557,253.947769 
	C430.119598,272.559204 430.229462,291.174011 430.229462,310.454956 
	C432.608276,312.089752 436.403809,313.881683 440.720581,312.507751 
	C445.314178,311.045746 449.703644,310.545227 454.327087,312.515869 
	C456.529724,313.454773 458.890167,312.564575 461.029907,311.421692 
	C463.376770,310.168152 465.738770,308.910797 468.195312,307.901062 
	C474.176331,305.442596 474.459442,305.129425 474.743683,298.507019 
	C466.163788,309.183441 466.163788,309.178589 452.090515,309.202850 
	C450.425995,309.205750 448.739899,309.145691 447.101807,309.380310 
	C443.932495,309.834259 442.975250,308.446472 443.104675,305.450775 
	C443.399139,298.634644 443.675903,291.808380 443.607117,284.989838 
	C443.573456,281.655334 445.048096,280.161011 447.987152,279.382477 
	C450.172241,278.803741 452.283325,279.494446 454.399414,279.453552 
	C458.079346,279.382324 462.095276,283.248718 464.727386,280.910492 
	C467.448181,278.493530 465.121674,273.633789 465.762299,269.893982 
	C465.798218,269.684113 465.573059,269.429504 465.401001,269.041382 
	C462.336609,277.656158 455.067230,276.001801 448.538177,276.229858 
	C445.180084,276.347198 443.654938,274.896088 443.692169,271.502411 
	C443.763428,265.007935 443.774017,258.510376 443.649445,252.017136 
	C443.586792,248.752762 445.092224,247.533432 448.180237,247.618011 
	C456.019989,247.832764 464.163666,246.325439 470.781067,252.505203 
	C472.220184,249.621307 471.530579,247.270218 471.575653,244.196899 
M419.944305,252.641571 
	C415.440582,250.205811 411.782806,251.992447 411.378479,257.214111 
	C410.158813,272.965546 409.337189,288.740143 410.052338,304.548462 
	C410.232269,308.524872 413.564148,311.659210 417.345459,311.605591 
	C421.379974,311.548401 424.803223,308.260345 424.876556,304.172516 
	C425.088470,292.356995 424.918060,280.529297 423.528076,268.799500 
	C422.911316,263.594910 422.817535,258.163269 419.944305,252.641571 
M468.883331,298.041901 
	C465.088684,297.356049 462.489716,295.578217 460.776489,291.757843 
	C459.028076,287.858917 453.816345,287.083771 451.020447,289.600281 
	C449.008392,291.411285 448.097595,303.404419 449.850006,305.437256 
	C450.156464,305.792755 450.618042,306.076721 451.064209,306.240143 
	C457.129211,308.461731 466.618103,304.458801 468.883331,298.041901 
M452.846405,261.815094 
	C453.283203,263.243927 453.682526,264.751434 454.946747,265.662720 
	C457.026520,267.161957 459.264648,268.520355 461.504669,265.967743 
	C463.274750,263.950653 467.327606,262.968353 465.094269,258.967560 
	C463.225830,255.620468 459.982758,255.739502 456.788635,256.097748 
	C453.859741,256.426239 452.319550,258.029022 452.846405,261.815094 
z"/>
<path fill="#000000" opacity="1.000000" stroke="none" 
	d="
M409.983521,400.020874 
	C411.261475,398.285492 410.048065,398.325592 408.739746,398.017426 
	C401.787109,396.379944 395.762939,392.932404 390.495636,388.169250 
	C389.412445,387.189667 388.475861,385.953644 387.781189,384.668518 
	C387.221924,383.633881 387.282135,382.312469 388.397339,381.508484 
	C389.601166,380.640564 390.450165,381.368225 391.395233,382.249817 
	C395.780304,386.340363 400.082642,390.541931 406.585602,391.128662 
	C409.808136,391.419403 412.775452,390.831818 416.608704,389.845947 
	C413.144745,385.931030 409.295349,384.376190 405.266327,382.971283 
	C398.238647,380.520721 390.931061,378.753571 384.638092,374.463989 
	C380.701080,371.780212 377.464355,368.497559 375.232208,364.302124 
	C373.110291,360.313873 373.957733,359.024231 378.551544,358.903778 
	C379.882263,358.868958 381.215302,358.814331 382.539185,358.685516 
	C382.997437,358.640930 383.431183,358.344208 384.715637,357.820099 
	C381.058716,352.512878 378.013306,347.058228 376.939301,340.789337 
	C376.299286,337.053589 374.236542,332.406921 377.796509,330.065582 
	C381.551117,327.596191 384.254486,332.271545 386.883911,334.400757 
	C392.320953,338.803436 395.388184,344.870483 396.855133,353.196136 
	C398.782715,349.426605 399.882599,346.921295 401.293427,344.605408 
	C403.094604,341.648895 405.163239,341.668762 406.977783,344.658417 
	C409.339935,348.550354 410.801086,352.776154 411.292572,357.312958 
	C411.450195,358.767609 411.109406,360.330109 412.256348,361.568848 
	C418.044647,357.499176 418.293762,357.475220 421.930450,363.873962 
	C423.798248,367.160278 425.218201,370.701111 426.935242,374.327026 
	C434.323151,370.270447 436.500732,377.192352 439.857178,380.749054 
	C442.365631,383.407196 443.279266,386.604919 448.238403,384.142670 
	C450.888458,382.826874 454.788452,384.739105 457.282166,387.187805 
	C460.478210,390.326111 463.609863,391.253540 468.539337,391.289551 
	C477.287720,391.353424 484.997192,396.101898 488.452057,404.766846 
	C491.103088,411.415833 495.501709,414.942413 502.200897,416.318634 
	C503.816223,416.650482 505.455078,417.196045 506.895447,417.985626 
	C510.326233,419.866455 513.528931,420.152496 517.355042,418.642365 
	C520.158813,417.535736 523.529541,417.865723 527.272217,417.493195 
	C521.004211,422.105896 513.569458,423.348053 507.198944,421.490387 
	C501.995941,419.973175 496.704193,418.760406 491.317230,417.920654 
	C498.209534,420.169861 505.260773,421.819122 512.092712,424.223633 
	C513.202087,424.614044 514.764526,424.201416 515.968811,423.757019 
	C522.341858,421.405579 529.019958,420.126770 535.694702,418.339874 
	C534.739868,416.621490 533.352112,418.232513 532.094238,417.055573 
	C536.795532,407.941071 538.785278,396.581390 552.786377,393.140717 
	C548.835510,397.010254 545.013306,398.974884 542.438416,402.277832 
	C539.851990,405.595490 538.149536,409.249237 537.421692,413.709869 
	C539.597839,412.957825 541.469666,412.433350 543.238892,411.670746 
	C545.860229,410.540833 548.204956,409.464996 545.467712,405.875305 
	C543.079102,402.742889 546.004395,400.905334 548.008362,398.921692 
	C550.433228,396.521362 554.666931,396.549683 555.754639,392.013184 
	C556.240051,389.988556 558.815735,391.265228 559.618347,393.365845 
	C560.618408,395.982849 559.108032,398.599304 559.624634,402.363007 
	C562.485413,394.740326 566.628845,389.323364 572.954041,385.820984 
	C574.643982,384.885254 576.361389,383.040436 578.382324,384.385162 
	C580.173218,385.576813 580.027893,387.880371 580.138611,389.879822 
	C580.280334,392.437805 579.463562,394.780212 578.720947,397.180939 
	C578.226196,398.780029 576.750732,400.409088 578.238892,402.436920 
	C581.079712,402.022369 580.808533,399.818512 580.771301,397.923462 
	C580.584473,388.402710 584.952026,380.999786 591.505676,374.605255 
	C592.673889,373.465485 593.861511,371.929047 595.766174,372.732056 
	C597.500793,373.463287 597.810608,375.331482 598.055847,376.936005 
	C598.754578,381.508698 598.811096,386.108429 597.317749,391.237762 
	C600.820740,389.883759 600.692749,387.988068 600.220886,385.673340 
	C598.425354,376.865051 600.378113,368.833130 605.523865,361.511932 
	C608.471680,357.317932 609.987305,357.508453 612.386963,362.192383 
	C614.432556,366.185150 614.223572,370.565216 614.841980,375.231445 
	C617.492126,373.294403 616.100525,371.208832 615.607300,369.387085 
	C613.315857,360.922546 614.193665,352.867188 618.670105,345.311981 
	C620.879883,341.582520 623.070679,341.659576 625.170837,345.503815 
	C626.351440,347.664734 627.184509,350.015472 628.449219,352.910278 
	C631.903748,343.814392 633.568054,334.059692 644.493286,331.363892 
	C637.255493,338.464844 630.993103,345.910553 631.755371,357.215393 
	C627.791504,361.806824 626.219849,367.834473 621.065308,370.661346 
	C622.108826,367.290924 623.145325,364.309906 624.014771,361.280853 
	C625.636597,355.630798 625.197571,350.242493 621.687622,344.861633 
	C616.188660,353.744537 615.942200,362.296356 620.940674,371.207703 
	C622.090027,372.771423 622.245361,372.879761 622.908630,371.928589 
	C626.248718,367.139038 630.227478,362.727142 632.290588,356.831360 
	C634.114563,355.685425 635.690979,354.763702 637.130676,353.663086 
	C642.743408,349.372284 646.825073,337.539642 645.012146,330.991913 
	C648.072876,328.629089 649.413574,329.039032 649.634705,333.049225 
	C650.050415,340.586334 647.733337,347.475342 643.628357,353.785217 
	C642.754578,355.128326 641.109497,356.042908 641.230408,358.618530 
	C643.421204,358.721802 645.669250,358.921509 647.916565,358.913208 
	C651.991638,358.898132 652.637146,360.935272 650.820618,364.007751 
	C646.283081,371.682343 639.888550,376.881195 630.819519,378.260132 
	C628.381714,378.630798 625.944275,379.003723 623.688904,379.347778 
	C623.045959,381.257538 625.291504,380.471130 625.156494,381.801392 
	C619.412109,383.167786 613.931641,385.196899 609.488525,389.718292 
	C618.367249,393.048126 627.346375,390.663696 633.694763,383.548950 
	C634.751282,382.364929 635.304932,379.438446 637.637756,381.698517 
	C639.473877,383.477325 638.265015,385.458710 636.734436,386.924713 
	C629.175720,394.164368 620.731079,398.885986 609.743958,396.154022 
	C608.653931,395.882935 607.519531,395.249817 606.102234,396.514160 
	C607.959595,398.573151 610.710266,397.597900 612.773193,398.541626 
	C614.407166,399.289093 616.392517,399.281494 618.006470,400.057220 
	C621.943604,401.949707 622.165283,404.728485 618.443848,407.104004 
	C609.818054,412.610260 600.749207,415.624725 590.543091,411.384583 
	C589.096558,410.783600 587.530701,409.918915 585.287598,410.491669 
	C588.196350,413.382629 592.156372,413.911835 594.986938,416.244446 
	C596.391174,417.401581 598.302490,418.231873 598.100952,420.413300 
	C597.879211,422.812836 595.806763,423.507568 593.920410,424.181396 
	C584.946777,427.386902 576.122314,428.324921 567.590088,422.706940 
	C565.858459,421.566742 563.730225,421.028809 561.309143,420.900330 
	C563.141907,422.700012 564.974670,424.499725 566.537354,426.605896 
	C558.892090,421.929504 551.225037,418.230408 541.718079,420.958160 
	C546.828552,428.948395 556.110474,432.640472 564.521301,430.469055 
	C566.449097,429.971344 567.415100,429.070007 567.035217,427.030975 
	C569.973206,427.786713 571.880981,429.967072 571.683777,432.685455 
	C571.469727,435.635803 568.216980,435.358124 566.064331,435.725494 
	C556.640503,437.333771 548.277771,435.059326 541.126770,428.556061 
	C536.078979,423.965485 533.381958,423.893616 526.872864,428.124573 
	C529.298462,431.040863 531.762207,433.890869 534.094360,436.844727 
	C535.755249,438.948395 536.843262,441.255981 534.038086,443.308624 
	C531.416931,445.226593 528.845581,445.386597 526.586243,442.603455 
	C524.159302,439.613892 521.286255,437.141052 518.127136,434.918060 
	C514.972168,432.697968 512.041260,432.705322 508.903534,434.792786 
	C505.549072,437.024475 502.587585,439.695679 500.033386,442.777496 
	C497.898865,445.352936 495.652832,445.313599 493.013367,443.716553 
	C490.274780,442.059570 489.482391,439.896057 490.922394,436.985138 
	C491.438538,435.941742 491.990265,434.911255 492.430145,433.835785 
	C493.287384,431.739990 495.079285,429.380219 492.822296,427.447906 
	C490.643646,425.582672 488.146301,427.269073 486.472931,428.630127 
	C479.112610,434.616821 470.892395,437.334259 461.436615,436.158478 
	C457.723877,435.696838 454.199707,435.355896 453.569794,430.320770 
	C453.178223,427.190643 450.198730,427.146606 447.612579,427.170105 
	C442.249329,427.218781 437.010254,426.632782 432.041565,424.379730 
	C429.216095,423.098480 427.089355,421.632019 428.298004,417.972290 
	C429.347778,414.793701 426.997101,414.420959 424.760803,413.988892 
	C418.800690,412.837219 413.396332,410.297302 408.257141,407.169220 
	C406.715729,406.231018 404.909668,405.166840 405.240570,402.997589 
	C405.565125,400.870300 407.338165,400.183746 409.579895,400.228760 
	C409.880341,404.142303 413.830200,402.069031 415.004852,404.009094 
	C414.996460,403.997498 414.976410,403.976227 415.190765,404.252808 
	C421.647003,409.144318 428.524414,408.857971 434.690491,403.726379 
	C429.107025,399.713837 423.838684,398.923706 409.983521,400.020874 
M590.538940,399.172729 
	C582.337708,403.307434 574.278381,407.790924 564.845581,409.644958 
	C571.061584,403.089813 576.107971,396.248444 575.508118,386.655121 
	C566.707336,391.802948 563.181519,397.229462 562.084778,407.098145 
	C561.867859,409.050537 561.945007,411.216797 559.344055,411.449188 
	C557.527588,410.758759 558.511108,408.403259 556.724548,407.828918 
	C553.385742,408.923401 554.205811,414.026154 550.085754,414.594818 
	C546.899170,415.034637 543.801147,416.115540 540.663757,416.911438 
	C568.343445,414.129791 598.823425,398.854767 608.090515,386.366333 
	C602.688049,390.333191 596.926331,394.563843 590.538940,399.172729 
M567.526184,414.125885 
	C566.692444,414.905670 567.086792,415.584961 567.718872,416.218140 
	C574.174500,422.684784 586.177979,423.416351 593.619080,417.791016 
	C585.750916,412.323425 577.246338,410.951752 567.526184,414.125885 
M614.782288,400.986176 
	C606.267029,397.662994 598.471802,399.244843 590.631348,403.961365 
	C597.475159,409.723358 611.054382,408.683990 616.323547,402.446686 
	C616.933411,401.724762 615.950073,401.430969 614.782288,400.986176 
M381.353180,340.120361 
	C382.849335,346.413910 385.148804,352.084015 391.951019,355.003265 
	C394.141113,346.358307 389.481323,337.427521 380.893738,332.907135 
	C381.040100,335.171539 381.174042,337.244141 381.353180,340.120361 
M632.594727,365.029236 
	C630.022766,367.275238 627.450867,369.521210 624.404297,372.181641 
	C635.765503,374.390594 642.271667,368.817780 648.027283,360.263550 
	C642.282837,360.462280 637.521790,361.754517 632.594727,365.029236 
M585.531067,398.182098 
	C591.872864,395.557343 594.117065,389.095093 593.254944,375.940582 
	C585.461670,383.300323 583.049866,389.668884 585.531067,398.182098 
M380.649200,363.204224 
	C386.578094,371.353851 392.692505,373.968475 400.714569,371.784454 
	C393.458069,363.812622 385.958282,360.034698 379.146057,361.032471 
	C379.562347,361.621887 379.932678,362.146271 380.649200,363.204224 
M433.064667,389.220795 
	C434.309418,392.754608 436.384827,395.582184 439.729614,397.428864 
	C443.569092,391.336304 440.197449,382.245697 432.005676,376.214203 
	C431.275970,380.407898 431.757385,384.459534 433.064667,389.220795 
M459.244965,427.943268 
	C460.742950,429.958313 463.635254,430.437408 464.042053,428.596558 
	C465.170441,423.490662 470.025879,425.219482 472.855957,422.268250 
	C473.219269,426.151245 472.062714,428.358856 468.192657,430.024078 
	C475.989929,429.577332 481.058289,426.976990 484.519928,420.151703 
	C474.500519,418.702179 466.714386,421.854889 459.244965,427.943268 
M602.906921,378.788361 
	C603.511963,380.860901 602.546753,383.503082 605.268982,385.110748 
	C611.268066,377.994446 610.443054,370.046478 608.972534,361.589478 
	C604.294434,366.778168 602.358643,372.062653 602.906921,378.788361 
M418.776733,363.363373 
	C418.358429,362.885254 417.940125,362.407166 417.442657,361.838593 
	C414.168701,372.295441 415.399719,379.722992 421.354980,383.628571 
	C424.556824,376.463043 422.873444,370.081085 418.776733,363.363373 
M403.142731,364.960480 
	C403.711517,366.058228 403.780609,367.604095 405.518616,367.671600 
	C409.201050,361.255676 408.409912,351.442688 403.736145,346.158356 
	C400.332062,352.096222 400.482086,358.134552 403.142731,364.960480 
M451.368927,393.889374 
	C452.404510,397.146057 454.502106,399.734833 456.717926,402.222992 
	C457.936493,403.591370 459.335083,405.136047 461.395508,403.971954 
	C463.556671,402.750916 462.715546,400.826355 462.019196,399.126190 
	C459.732819,393.543793 455.648438,389.639557 450.248566,386.783142 
	C451.201904,388.884583 450.835724,391.061249 451.368927,393.889374 
M483.415924,402.165649 
	C479.933685,398.042328 475.634186,395.254639 470.403748,393.896637 
	C470.436554,394.695984 470.889923,394.911530 471.267792,395.219666 
	C474.469299,397.830261 481.809601,398.174500 476.831055,405.341980 
	C476.633728,405.626038 477.136963,406.640350 477.560822,407.071594 
	C479.857269,409.408020 482.416321,413.167450 485.762634,410.990051 
	C488.672089,409.096954 485.601105,405.981049 484.442505,403.550232 
	C484.301758,403.254974 484.054718,403.010437 483.415924,402.165649 
M437.428680,418.583588 
	C444.023529,415.306824 450.833679,413.115356 458.428070,414.877289 
	C449.140747,410.543823 438.503845,412.082581 432.257111,418.312775 
	C433.828796,418.444000 435.291107,418.566101 437.428680,418.583588 
M498.892487,434.358978 
	C501.369232,432.175079 503.845978,429.991180 506.322693,427.807281 
	C501.387238,430.162872 497.006805,433.120209 493.484283,438.117249 
	C496.611176,438.108459 497.327148,436.193420 498.892487,434.358978 
M530.602844,435.604980 
	C527.869690,432.903198 525.246277,430.047638 521.356201,428.925568 
	C524.125549,431.533905 526.911987,434.072540 529.224426,437.078094 
	C529.716125,437.717194 530.333679,438.511536 531.204041,437.819641 
	C531.803284,437.343201 531.387512,436.634338 530.602844,435.604980 
M446.332764,404.572083 
	C446.048370,404.672394 445.759277,404.762909 445.488617,404.892090 
	C445.467407,404.902130 445.528351,405.270416 445.629791,405.324371 
	C448.961578,407.096619 452.307068,408.839294 456.258026,408.934723 
	C453.121613,407.539825 449.985229,406.144897 446.332764,404.572083 
z"/>
<path fill="#000000" opacity="1.000000" stroke="none" 
	d="
M535.090698,191.474487 
	C535.435669,193.382126 535.597107,195.296234 534.276306,196.034393 
	C529.718750,198.581375 526.241943,202.493637 521.755310,205.219543 
	C515.777283,208.851501 511.173401,209.436371 504.642853,205.609787 
	C499.791595,202.767151 495.886810,198.960907 491.400848,195.847488 
	C488.649994,193.938293 490.253021,190.737885 492.867584,188.746582 
	C494.178925,187.747787 496.113800,187.795914 497.093353,186.199249 
	C497.128937,184.185715 495.618286,183.653900 494.132202,183.526627 
	C485.091949,182.752441 477.197021,178.102127 471.716248,172.088409 
	C466.803162,166.697586 459.216248,161.600571 459.967773,152.290878 
	C460.037292,151.429382 459.205261,150.488785 458.772827,149.594116 
	C456.635498,145.172363 454.934662,140.901443 457.493347,135.819916 
	C458.504059,133.812637 457.686127,130.919861 457.852356,128.440445 
	C457.977203,126.578651 458.435852,124.655968 460.379059,123.896271 
	C462.631439,123.015701 463.668152,124.817268 464.696014,126.349213 
	C468.720947,132.347977 474.341614,136.288666 480.763763,139.418091 
	C487.105042,142.508087 494.389923,144.267502 498.686707,151.578674 
	C499.812225,146.082260 503.554565,143.993683 507.870300,142.330170 
	C512.142334,140.683502 516.102722,142.551407 520.142883,143.085175 
	C523.481018,143.526230 523.809937,146.130081 522.601868,148.807526 
	C521.166260,151.989120 521.802307,154.477692 524.475159,156.900452 
	C528.899231,153.721909 528.087341,146.251755 535.716431,145.188370 
	C532.214905,148.849701 530.754700,152.589310 529.289001,156.368469 
	C528.408630,158.638550 526.445312,160.199524 523.832947,160.029877 
	C521.210327,159.859558 519.716736,158.075623 518.957764,155.654877 
	C517.848572,152.117477 517.129578,148.562271 518.723572,144.860580 
	C513.429260,142.732117 508.755402,143.593628 504.101471,147.320999 
	C507.519409,148.774475 509.914581,150.616882 507.700104,154.765594 
	C506.301422,157.385971 505.008423,160.094513 501.719879,159.975220 
	C498.414276,159.855301 496.220459,157.752228 495.543884,154.411011 
	C494.555603,149.530457 491.439423,146.656677 487.038818,144.719147 
	C482.929382,142.909805 478.961578,140.780884 474.910278,138.836777 
	C470.859253,136.892807 467.951538,133.319244 463.344299,130.482819 
	C463.511017,135.800659 466.426422,138.751068 469.229797,141.525620 
	C472.013916,144.281219 475.256317,146.573822 478.929657,149.587936 
	C472.771332,150.480042 468.950836,145.665634 463.566833,145.524658 
	C463.985474,150.140671 467.874115,150.663986 470.363647,152.347031 
	C473.049286,154.162598 476.168152,155.337311 479.581390,157.031494 
	C475.862457,159.872849 472.331604,156.210556 468.567810,158.219437 
	C472.305023,163.497589 478.788269,161.633606 483.108856,164.325882 
	C482.497528,167.343323 478.880371,165.281189 477.902924,167.887421 
	C480.608490,170.127121 484.200256,169.190643 487.149628,170.172272 
	C487.953094,172.323044 485.350830,172.402222 485.125549,174.049149 
	C485.456299,174.239243 485.946136,174.745682 486.225800,174.648346 
	C492.183777,172.574448 496.243042,178.291031 501.757477,178.453491 
	C503.518524,178.505356 504.886353,180.873322 503.442963,183.224045 
	C502.415741,184.896957 501.445129,186.604599 500.355743,188.455627 
	C503.104248,189.333618 505.053345,186.610153 507.684509,187.951126 
	C508.158447,191.541763 505.142670,194.175156 504.477997,197.915253 
	C507.187378,198.411469 509.414429,199.534058 510.987061,202.003708 
	C512.305969,204.074875 514.518738,203.511475 515.406006,201.600677 
	C516.737244,198.733765 518.789490,198.055099 521.885559,198.781326 
	C521.221985,194.623825 517.975098,191.751953 518.174805,187.900452 
	C523.163147,186.210617 525.644531,193.799789 531.604858,190.042526 
	C526.324402,190.216293 524.563293,186.942581 522.785217,183.751938 
	C521.062805,180.661163 521.918335,178.920639 525.489075,178.069427 
	C528.223633,177.417526 530.958069,176.968597 533.434753,174.880066 
	C535.671875,172.993591 539.178406,175.594574 542.398071,174.356293 
	C542.080200,172.785019 539.377686,173.047989 539.593018,170.862579 
	C542.551758,168.021484 547.872498,171.637405 550.611694,167.457718 
	C548.908020,165.281799 545.836731,167.325729 543.829407,164.622803 
	C548.913635,160.778900 557.531494,163.674881 560.831970,155.881241 
	C556.446472,156.265259 552.579041,158.760651 546.547729,157.503036 
	C554.725098,152.361526 564.556519,150.723877 566.243164,139.937271 
	C561.497803,144.460449 556.545471,147.952271 549.904785,148.634323 
	C556.612061,141.467377 566.208557,136.154510 563.977295,123.866104 
	C568.550171,124.655258 568.112183,127.981995 567.995789,130.782303 
	C567.879395,133.584900 567.263794,136.245300 569.140625,138.859863 
	C570.059998,140.140579 569.997009,142.082657 569.521240,143.731232 
	C568.131714,148.545975 566.901550,153.871078 564.921082,157.942764 
	C562.023743,163.899368 557.603577,169.826874 551.583069,174.044952 
	C547.293335,177.050430 543.547546,180.764008 538.247009,182.032318 
	C537.771118,182.146179 537.354065,182.485901 536.885315,182.652130 
	C529.113647,185.408173 529.112793,185.405731 535.090698,191.474487 
z"/>
<path fill="#000000" opacity="1.000000" stroke="none" 
	d="
M669.610046,253.377121 
	C667.917664,253.493378 666.563232,253.505051 665.309265,253.865891 
	C663.169678,254.481598 661.157532,255.572632 660.555298,257.874207 
	C659.854736,260.550812 662.139099,261.797333 663.852478,262.915649 
	C670.399109,267.188660 677.239380,271.026215 683.664612,275.468018 
	C697.914490,285.318939 696.823914,308.633759 681.946228,317.340851 
	C668.879089,324.988342 655.898926,323.879669 643.000000,317.133484 
	C639.244629,315.169403 636.976746,311.808929 636.957031,307.434387 
	C636.936768,302.929321 637.562988,298.455719 638.994019,294.165955 
	C639.930176,291.359955 641.496216,288.819794 644.946777,289.124115 
	C648.219360,289.412750 649.189819,292.052643 649.479614,294.846527 
	C650.078369,300.618896 653.435547,304.107605 658.472046,306.448792 
	C663.121704,308.610168 667.358337,307.598846 671.088562,304.662903 
	C674.369202,302.080780 672.904358,299.131622 670.376831,297.089355 
	C667.153748,294.485107 663.559204,292.331726 660.072083,290.065247 
	C655.891418,287.347961 651.540955,284.940186 647.621765,281.770203 
	C639.399658,275.119904 636.082947,266.904266 638.848450,256.591003 
	C641.742126,245.799957 649.440796,240.828217 660.001099,238.764694 
	C668.551270,237.093979 676.499268,239.817337 684.688110,240.851425 
	C686.966431,241.139145 688.275085,242.775360 688.142395,245.055038 
	C687.842896,250.199814 687.483704,255.350540 686.853394,260.462463 
	C686.558105,262.857269 685.278015,264.958862 682.448181,265.162415 
	C679.613403,265.366302 678.174866,263.599976 677.552490,261.113403 
	C676.531738,257.035797 674.274841,254.258270 669.610046,253.377121 
M655.992371,261.285583 
	C653.878296,257.877289 654.834106,248.006180 657.531677,245.388062 
	C660.016907,242.975952 666.497803,242.626907 669.730469,244.746994 
	C673.968262,247.526230 678.812134,249.491547 681.915771,254.165161 
	C682.867676,250.525650 683.388794,247.220703 682.914062,243.554276 
	C678.925232,242.988403 675.096802,242.713028 671.401917,241.859451 
	C665.610840,240.521622 660.114624,241.541626 654.726990,243.425156 
	C644.465515,247.012543 639.674377,258.107391 643.587219,268.239197 
	C645.728455,273.783661 650.079529,276.914032 654.794800,279.845184 
	C661.012573,283.710236 667.677063,286.935730 673.281372,291.688141 
	C679.959595,297.351288 677.977478,307.087708 669.754883,310.093628 
	C659.925415,313.686951 648.587891,307.533051 645.893860,297.174805 
	C645.493469,295.635345 645.724792,293.878082 644.487854,292.559296 
	C637.523193,300.039124 640.114929,311.082367 649.612122,313.232788 
	C656.227600,314.730774 663.129456,316.122162 669.901550,314.657532 
	C677.454956,313.023926 684.695862,310.549744 687.700989,302.056091 
	C691.811340,290.438568 689.491394,283.249969 679.174072,276.354614 
	C671.709290,271.365723 663.405762,267.690460 655.992371,261.285583 
z"/>
<path fill="#000000" opacity="1.000000" stroke="none" 
	d="
M613.492188,292.184601 
	C607.619934,307.421509 599.653931,311.504730 581.672424,308.805359 
	C580.736755,308.094421 580.859497,307.058746 580.858276,306.074677 
	C580.837341,288.624908 580.914001,271.174194 580.742371,253.725967 
	C580.698792,249.293365 582.107300,247.603592 586.756653,247.587479 
	C606.195312,247.520050 614.771057,255.523392 615.388306,275.034088 
	C615.566833,280.678009 615.371033,286.337402 613.492188,292.184601 
M586.209534,285.497406 
	C586.260010,290.479919 586.171326,295.469330 586.419189,300.442017 
	C586.543762,302.939331 587.108398,305.703461 590.485718,305.717224 
	C596.464478,305.741577 601.693726,304.449921 605.907776,299.346680 
	C612.871155,290.914185 612.021179,269.086853 607.122742,262.171356 
	C603.570984,257.157135 599.066345,254.369431 592.927063,254.412567 
	C588.593323,254.443024 586.117981,256.324066 586.199158,261.073883 
	C586.332642,268.879944 586.225403,276.690094 586.209534,285.497406 
z"/>
<path fill="#000000" opacity="1.000000" stroke="none" 
	d="
M514.926514,289.276367 
	C510.698059,289.277191 506.936707,289.277191 502.209747,289.277191 
	C505.778687,280.742340 509.000336,273.038055 512.221924,265.333801 
	C512.732605,265.339294 513.243225,265.344757 513.753906,265.350250 
	C516.969177,272.925568 520.401489,280.413574 522.812805,288.304443 
	C520.030701,289.735718 517.668335,289.089844 514.926514,289.276367 
z"/>
<path fill="#000000" opacity="1.000000" stroke="none" 
	d="
M415.004852,404.009094 
	C418.101440,400.035645 423.192871,399.792084 429.789764,404.029785 
	C424.490173,404.029785 420.190002,404.029785 415.433105,404.002991 
	C414.976410,403.976227 414.996460,403.997498 415.004852,404.009094 
z"/>
</svg>